<svg width="84" height="84" viewBox="0 0 84 84" fill="none" xmlns="http://www.w3.org/2000/svg">
<g filter="url(#filter0_d_15_1127)">
<circle cx="38" cy="38" r="18.6931" fill="url(#paint0_linear_15_1127)"/>
<rect x="6" y="37.6832" width="9.50495" height="1.90099" rx="0.950495" fill="url(#paint1_linear_15_1127)"/>
<rect x="15.9146" y="60.5733" width="9.50495" height="1.90099" rx="0.950495" transform="rotate(-44.9504 15.9146 60.5733)" fill="url(#paint2_linear_15_1127)"/>
<rect x="60.495" y="37.0496" width="9.50495" height="1.90099" rx="0.950495" fill="url(#paint3_linear_15_1127)"/>
<rect x="54.0341" y="21.6245" width="9.50495" height="1.90099" rx="0.950495" transform="rotate(-44.9504 54.0341 21.6245)" fill="url(#paint4_linear_15_1127)"/>
<rect x="37.0496" y="15.505" width="9.50495" height="1.90099" rx="0.950495" transform="rotate(-90 37.0496 15.505)" fill="url(#paint5_linear_15_1127)"/>
<rect x="22.2201" y="22.9412" width="9.50495" height="1.90099" rx="0.950495" transform="rotate(-134.95 22.2201 22.9412)" fill="url(#paint6_linear_15_1127)"/>
<rect x="37.0496" y="70" width="9.50495" height="1.90099" rx="0.950495" transform="rotate(-90 37.0496 70)" fill="url(#paint7_linear_15_1127)"/>
<rect x="60.7206" y="61.5083" width="9.50495" height="1.90099" rx="0.950495" transform="rotate(-134.95 60.7206 61.5083)" fill="url(#paint8_linear_15_1127)"/>
</g>
<defs>
<filter id="filter0_d_15_1127" x="0" y="0" width="83.9999" height="84" filterUnits="userSpaceOnUse" color-interpolation-filters="sRGB">
<feFlood flood-opacity="0" result="BackgroundImageFix"/>
<feColorMatrix in="SourceAlpha" type="matrix" values="0 0 0 0 0 0 0 0 0 0 0 0 0 0 0 0 0 0 127 0" result="hardAlpha"/>
<feOffset dx="4" dy="4"/>
<feGaussianBlur stdDeviation="5"/>
<feComposite in2="hardAlpha" operator="out"/>
<feColorMatrix type="matrix" values="0 0 0 0 0 0 0 0 0 0.273083 0 0 0 0 0.470833 0 0 0 0.44 0"/>
<feBlend mode="normal" in2="BackgroundImageFix" result="effect1_dropShadow_15_1127"/>
<feBlend mode="normal" in="SourceGraphic" in2="effect1_dropShadow_15_1127" result="shape"/>
</filter>
<linearGradient id="paint0_linear_15_1127" x1="52.5742" y1="26.9108" x2="26.9108" y2="51.3069" gradientUnits="userSpaceOnUse">
<stop stop-color="#FFF48D"/>
<stop offset="1" stop-color="#FF9D2A"/>
</linearGradient>
<linearGradient id="paint1_linear_15_1127" x1="13.604" y1="36.7327" x2="10.0944" y2="41.997" gradientUnits="userSpaceOnUse">
<stop stop-color="#FFF48D"/>
<stop offset="1" stop-color="#FF9D2A"/>
</linearGradient>
<linearGradient id="paint2_linear_15_1127" x1="23.5185" y1="59.6228" x2="20.009" y2="64.8871" gradientUnits="userSpaceOnUse">
<stop stop-color="#FFF48D"/>
<stop offset="1" stop-color="#FF9D2A"/>
</linearGradient>
<linearGradient id="paint3_linear_15_1127" x1="68.099" y1="36.0991" x2="64.5894" y2="41.3633" gradientUnits="userSpaceOnUse">
<stop stop-color="#FFF48D"/>
<stop offset="1" stop-color="#FF9D2A"/>
</linearGradient>
<linearGradient id="paint4_linear_15_1127" x1="61.638" y1="20.674" x2="58.1285" y2="25.9383" gradientUnits="userSpaceOnUse">
<stop stop-color="#FFF48D"/>
<stop offset="1" stop-color="#FF9D2A"/>
</linearGradient>
<linearGradient id="paint5_linear_15_1127" x1="44.6535" y1="14.5545" x2="41.144" y2="19.8188" gradientUnits="userSpaceOnUse">
<stop stop-color="#FFF48D"/>
<stop offset="1" stop-color="#FF9D2A"/>
</linearGradient>
<linearGradient id="paint6_linear_15_1127" x1="29.8241" y1="21.9907" x2="26.3145" y2="27.2549" gradientUnits="userSpaceOnUse">
<stop stop-color="#FFF48D"/>
<stop offset="1" stop-color="#FF9D2A"/>
</linearGradient>
<linearGradient id="paint7_linear_15_1127" x1="44.6535" y1="69.0495" x2="41.144" y2="74.3138" gradientUnits="userSpaceOnUse">
<stop stop-color="#FFF48D"/>
<stop offset="1" stop-color="#FF9D2A"/>
</linearGradient>
<linearGradient id="paint8_linear_15_1127" x1="68.3245" y1="60.5578" x2="64.815" y2="65.8221" gradientUnits="userSpaceOnUse">
<stop stop-color="#FFF48D"/>
<stop offset="1" stop-color="#FF9D2A"/>
</linearGradient>
</defs>
</svg>
