<svg width="64" height="69" viewBox="0 0 64 69" fill="none" xmlns="http://www.w3.org/2000/svg">
<g filter="url(#filter0_d_15_1238)">
<path d="M24.2987 38.8568C35.3361 52.8901 58.6193 41.3855 46.2591 49.8659C33.8989 58.3463 19.9148 55.6282 12.8294 45.3012C5.7439 34.9741 10.2733 19.5538 20.6004 12.4683C30.9274 5.38286 13.2613 24.8235 24.2987 38.8568Z" fill="url(#paint0_linear_15_1238)"/>
</g>
<path d="M34.1649 27.7612C34.213 27.2514 34.8363 27.0322 35.1928 27.3997L36.5772 28.8264C36.7225 28.9761 36.9352 29.0396 37.1389 28.9941L39.0789 28.5599C39.5785 28.4481 39.9796 28.9732 39.7403 29.4259L38.8112 31.1834C38.7137 31.3678 38.719 31.5897 38.8253 31.7693L39.8377 33.4802C40.0984 33.9208 39.723 34.4646 39.2185 34.3769L37.26 34.0364C37.0544 34.0006 36.845 34.0743 36.707 34.2308L35.3927 35.7224C35.0542 36.1065 34.4211 35.9174 34.3486 35.4106L34.0672 33.4426C34.0377 33.2361 33.9029 33.0597 33.7114 32.9769L31.8867 32.1878C31.4168 31.9846 31.4009 31.324 31.8606 31.0984L33.6453 30.2227C33.8326 30.1308 33.9587 29.9481 33.9783 29.7404L34.1649 27.7612Z" fill="url(#paint1_linear_15_1238)"/>
<path d="M28.6869 4.25657C28.609 3.75053 29.1599 3.38571 29.5954 3.65494L31.2863 4.70033C31.4638 4.81006 31.6856 4.81969 31.8719 4.72577L33.6471 3.83096C34.1043 3.6005 34.6215 4.01173 34.5001 4.50911L34.0284 6.44031C33.9789 6.64302 34.0382 6.8569 34.1851 7.00509L35.5847 8.4169C35.9452 8.78051 35.7139 9.39948 35.2033 9.43764L33.2209 9.58581C33.0128 9.60136 32.8277 9.72391 32.7322 9.90942L31.822 11.6768C31.5875 12.132 30.9274 12.1033 30.7333 11.6295L29.9798 9.78986C29.9007 9.59676 29.727 9.45862 29.521 9.42508L27.5589 9.10556C27.0535 9.02326 26.8768 8.38656 27.2675 8.05558L28.7842 6.77046C28.9434 6.63557 29.0211 6.42764 28.9893 6.2214L28.6869 4.25657Z" fill="url(#paint2_linear_15_1238)"/>
<path d="M50.5185 14.7162C50.3634 14.2283 50.8514 13.7828 51.3233 13.9815L53.1553 14.7533C53.3476 14.8344 53.5682 14.8096 53.7378 14.6881L55.3536 13.5299C55.7697 13.2317 56.3442 13.5581 56.301 14.0683L56.1331 16.0492C56.1155 16.2571 56.2071 16.4592 56.3752 16.583L57.9759 17.7618C58.3882 18.0654 58.2552 18.7126 57.7567 18.8292L55.8209 19.2816C55.6177 19.3291 55.4538 19.4788 55.388 19.6768L54.7615 21.5635C54.6002 22.0494 53.9435 22.123 53.6786 21.6848L52.6501 19.9836C52.5422 19.805 52.3492 19.6953 52.1405 19.694L50.1526 19.6812C49.6406 19.6779 49.3677 19.0761 49.7026 18.6888L51.0027 17.1849C51.1392 17.0271 51.1839 16.8097 51.1207 16.6108L50.5185 14.7162Z" fill="url(#paint3_linear_15_1238)"/>
<defs>
<filter id="filter0_d_15_1238" x="3.40009" y="4.96179" width="60.381" height="63.9358" filterUnits="userSpaceOnUse" color-interpolation-filters="sRGB">
<feFlood flood-opacity="0" result="BackgroundImageFix"/>
<feColorMatrix in="SourceAlpha" type="matrix" values="0 0 0 0 0 0 0 0 0 0 0 0 0 0 0 0 0 0 127 0" result="hardAlpha"/>
<feOffset dx="4" dy="4"/>
<feGaussianBlur stdDeviation="5"/>
<feComposite in2="hardAlpha" operator="out"/>
<feColorMatrix type="matrix" values="0 0 0 0 0 0 0 0 0 0.273083 0 0 0 0 0.470833 0 0 0 0.44 0"/>
<feBlend mode="normal" in2="BackgroundImageFix" result="effect1_dropShadow_15_1238"/>
<feBlend mode="normal" in="SourceGraphic" in2="effect1_dropShadow_15_1238" result="shape"/>
</filter>
<linearGradient id="paint0_linear_15_1238" x1="33.0543" y1="34.0346" x2="18.0646" y2="49.0244" gradientUnits="userSpaceOnUse">
<stop stop-color="#FFF48D"/>
<stop offset="1" stop-color="#FF9D2A"/>
</linearGradient>
<linearGradient id="paint1_linear_15_1238" x1="39.5883" y1="29.8068" x2="30.7482" y2="35.5721" gradientUnits="userSpaceOnUse">
<stop stop-color="#FFF48D"/>
<stop offset="1" stop-color="#FF9D2A"/>
</linearGradient>
<linearGradient id="paint2_linear_15_1238" x1="34.4457" y1="4.91564" x2="27.2814" y2="12.6654" gradientUnits="userSpaceOnUse">
<stop stop-color="#FFF48D"/>
<stop offset="1" stop-color="#FF9D2A"/>
</linearGradient>
<linearGradient id="paint3_linear_15_1238" x1="56.3101" y1="14.4783" x2="50.4281" y2="23.2412" gradientUnits="userSpaceOnUse">
<stop stop-color="#FFF48D"/>
<stop offset="1" stop-color="#FF9D2A"/>
</linearGradient>
</defs>
</svg>
