<svg width="101" height="85" viewBox="0 0 101 85" fill="none" xmlns="http://www.w3.org/2000/svg">
<g filter="url(#filter0_d_15_1148)">
<circle cx="28.7571" cy="28.7571" r="22.7571" fill="url(#paint0_linear_15_1148)"/>
</g>
<g filter="url(#filter1_bd_15_1148)">
<path fill-rule="evenodd" clip-rule="evenodd" d="M68.1 70.0286H29.9143V70.0232C29.7861 70.0268 29.6576 70.0286 29.5286 70.0286C22.0727 70.0286 16.0286 63.9844 16.0286 56.5286C16.0286 49.1591 21.9336 43.1687 29.2702 43.031C29.1861 42.2704 29.1429 41.4974 29.1429 40.7143C29.1429 29.211 38.4681 19.8857 49.9714 19.8857C58.461 19.8857 65.7642 24.9648 69.0083 32.25C79.0247 32.724 87 40.9949 87 51.1286C87 61.4379 78.7458 69.8193 68.4857 70.0247V70.0286H68.1Z" fill="url(#paint1_radial_15_1148)" shape-rendering="crispEdges"/>
</g>
<defs>
<filter id="filter0_d_15_1148" x="0" y="0" width="65.5143" height="65.5143" filterUnits="userSpaceOnUse" color-interpolation-filters="sRGB">
<feFlood flood-opacity="0" result="BackgroundImageFix"/>
<feColorMatrix in="SourceAlpha" type="matrix" values="0 0 0 0 0 0 0 0 0 0 0 0 0 0 0 0 0 0 127 0" result="hardAlpha"/>
<feOffset dx="4" dy="4"/>
<feGaussianBlur stdDeviation="5"/>
<feComposite in2="hardAlpha" operator="out"/>
<feColorMatrix type="matrix" values="0 0 0 0 0 0 0 0 0 0.273083 0 0 0 0 0.470833 0 0 0 0.44 0"/>
<feBlend mode="normal" in2="BackgroundImageFix" result="effect1_dropShadow_15_1148"/>
<feBlend mode="normal" in="SourceGraphic" in2="effect1_dropShadow_15_1148" result="shape"/>
</filter>
<filter id="filter1_bd_15_1148" x="6.02856" y="9.88574" width="94.9714" height="74.1429" filterUnits="userSpaceOnUse" color-interpolation-filters="sRGB">
<feFlood flood-opacity="0" result="BackgroundImageFix"/>
<feGaussianBlur in="BackgroundImage" stdDeviation="5"/>
<feComposite in2="SourceAlpha" operator="in" result="effect1_backgroundBlur_15_1148"/>
<feColorMatrix in="SourceAlpha" type="matrix" values="0 0 0 0 0 0 0 0 0 0 0 0 0 0 0 0 0 0 127 0" result="hardAlpha"/>
<feOffset dx="4" dy="4"/>
<feGaussianBlur stdDeviation="5"/>
<feComposite in2="hardAlpha" operator="out"/>
<feColorMatrix type="matrix" values="0 0 0 0 0 0 0 0 0 0.273083 0 0 0 0 0.470833 0 0 0 0.2 0"/>
<feBlend mode="normal" in2="effect1_backgroundBlur_15_1148" result="effect2_dropShadow_15_1148"/>
<feBlend mode="normal" in="SourceGraphic" in2="effect2_dropShadow_15_1148" result="shape"/>
</filter>
<linearGradient id="paint0_linear_15_1148" x1="46.5" y1="15.2571" x2="15.2571" y2="44.9571" gradientUnits="userSpaceOnUse">
<stop stop-color="#FFF48D"/>
<stop offset="1" stop-color="#FF9D2A"/>
</linearGradient>
<radialGradient id="paint1_radial_15_1148" cx="0" cy="0" r="1" gradientUnits="userSpaceOnUse" gradientTransform="translate(51.5143 49.9715) rotate(132.044) scale(58.1713 82.3347)">
<stop stop-color="white" stop-opacity="0.47"/>
<stop offset="1" stop-color="white" stop-opacity="0.91"/>
</radialGradient>
</defs>
</svg>
