<svg width="103" height="83" viewBox="0 0 103 83" fill="none" xmlns="http://www.w3.org/2000/svg">
<g filter="url(#filter0_d_15_1680)">
<path d="M25.2879 35.2185C36.7746 49.8231 61.0058 37.8501 48.1423 46.6758C35.2789 55.5015 20.7256 52.6727 13.3517 41.9252C5.97774 31.1777 10.6915 15.1296 21.439 7.7557C32.1865 0.381781 13.8011 20.6139 25.2879 35.2185Z" fill="url(#paint0_linear_15_1680)"/>
</g>
<g filter="url(#filter1_bd_15_1680)">
<path fill-rule="evenodd" clip-rule="evenodd" d="M69.2 69H29.6V68.9944C29.4671 68.9981 29.3338 69 29.2 69C21.468 69 15.2 62.732 15.2 55C15.2 47.3575 21.3238 41.1453 28.9321 41.0025C28.8448 40.2137 28.8 39.4121 28.8 38.6C28.8 26.6706 38.4707 17 50.4 17C59.204 17 66.7777 22.2672 70.1419 29.8222C80.5293 30.3137 88.8 38.891 88.8 49.4C88.8 60.0911 80.2401 68.783 69.6 68.996V69H69.2Z" fill="url(#paint1_radial_15_1680)" shape-rendering="crispEdges"/>
</g>
<defs>
<filter id="filter0_d_15_1680" x="3.78278" y="0.187805" width="62.025" height="65.7245" filterUnits="userSpaceOnUse" color-interpolation-filters="sRGB">
<feFlood flood-opacity="0" result="BackgroundImageFix"/>
<feColorMatrix in="SourceAlpha" type="matrix" values="0 0 0 0 0 0 0 0 0 0 0 0 0 0 0 0 0 0 127 0" result="hardAlpha"/>
<feOffset dx="4" dy="4"/>
<feGaussianBlur stdDeviation="5"/>
<feComposite in2="hardAlpha" operator="out"/>
<feColorMatrix type="matrix" values="0 0 0 0 0 0 0 0 0 0.273083 0 0 0 0 0.470833 0 0 0 0.44 0"/>
<feBlend mode="normal" in2="BackgroundImageFix" result="effect1_dropShadow_15_1680"/>
<feBlend mode="normal" in="SourceGraphic" in2="effect1_dropShadow_15_1680" result="shape"/>
</filter>
<filter id="filter1_bd_15_1680" x="5.20001" y="7" width="97.6" height="76" filterUnits="userSpaceOnUse" color-interpolation-filters="sRGB">
<feFlood flood-opacity="0" result="BackgroundImageFix"/>
<feGaussianBlur in="BackgroundImage" stdDeviation="5"/>
<feComposite in2="SourceAlpha" operator="in" result="effect1_backgroundBlur_15_1680"/>
<feColorMatrix in="SourceAlpha" type="matrix" values="0 0 0 0 0 0 0 0 0 0 0 0 0 0 0 0 0 0 127 0" result="hardAlpha"/>
<feOffset dx="4" dy="4"/>
<feGaussianBlur stdDeviation="5"/>
<feComposite in2="hardAlpha" operator="out"/>
<feColorMatrix type="matrix" values="0 0 0 0 0 0 0 0 0 0.273083 0 0 0 0 0.470833 0 0 0 0.2 0"/>
<feBlend mode="normal" in2="effect1_backgroundBlur_15_1680" result="effect2_dropShadow_15_1680"/>
<feBlend mode="normal" in="SourceGraphic" in2="effect2_dropShadow_15_1680" result="shape"/>
</filter>
<linearGradient id="paint0_linear_15_1680" x1="34.4" y1="30.2" x2="18.8" y2="45.8" gradientUnits="userSpaceOnUse">
<stop stop-color="#FFF48D"/>
<stop offset="1" stop-color="#FF9D2A"/>
</linearGradient>
<radialGradient id="paint1_radial_15_1680" cx="0" cy="0" r="1" gradientUnits="userSpaceOnUse" gradientTransform="translate(52 48.2) rotate(132.044) scale(60.3258 85.3842)">
<stop stop-color="white" stop-opacity="0.47"/>
<stop offset="1" stop-color="white" stop-opacity="0.91"/>
</radialGradient>
</defs>
</svg>
