<svg width="112" height="84" viewBox="0 0 112 84" fill="none" xmlns="http://www.w3.org/2000/svg">
<g filter="url(#filter0_bd_16_2217)">
<path fill-rule="evenodd" clip-rule="evenodd" d="M24.2308 69.9931C24.0673 69.9977 23.9032 70 23.7385 70C14.2222 70 6.50775 62.2855 6.50775 52.7692C6.50775 43.3631 14.0447 35.7173 23.4088 35.5416C23.3013 34.5707 23.2462 33.5841 23.2462 32.5846C23.2462 17.9023 35.1485 6 49.8308 6C60.6664 6 69.988 12.4827 74.1285 21.7812C86.913 22.386 97.0924 32.9427 97.0924 45.8769C97.0924 59.0353 86.5572 69.733 73.4616 69.9951V70H24.2308V69.9931Z" fill="url(#paint0_radial_16_2217)" shape-rendering="crispEdges"/>
</g>
<defs>
<filter id="filter0_bd_16_2217" x="-3.49225" y="-4" width="114.585" height="88" filterUnits="userSpaceOnUse" color-interpolation-filters="sRGB">
<feFlood flood-opacity="0" result="BackgroundImageFix"/>
<feGaussianBlur in="BackgroundImage" stdDeviation="5"/>
<feComposite in2="SourceAlpha" operator="in" result="effect1_backgroundBlur_16_2217"/>
<feColorMatrix in="SourceAlpha" type="matrix" values="0 0 0 0 0 0 0 0 0 0 0 0 0 0 0 0 0 0 127 0" result="hardAlpha"/>
<feOffset dx="4" dy="4"/>
<feGaussianBlur stdDeviation="5"/>
<feComposite in2="hardAlpha" operator="out"/>
<feColorMatrix type="matrix" values="0 0 0 0 0 0 0 0 0 0.273083 0 0 0 0 0.470833 0 0 0 0.2 0"/>
<feBlend mode="normal" in2="effect1_backgroundBlur_16_2217" result="effect2_dropShadow_16_2217"/>
<feBlend mode="normal" in="SourceGraphic" in2="effect2_dropShadow_16_2217" result="shape"/>
</filter>
<radialGradient id="paint0_radial_16_2217" cx="0" cy="0" r="1" gradientUnits="userSpaceOnUse" gradientTransform="translate(51.8001 44.4) rotate(132.044) scale(74.2471 105.088)">
<stop stop-color="white" stop-opacity="0.47"/>
<stop offset="1" stop-color="white" stop-opacity="0.91"/>
</radialGradient>
</defs>
</svg>
