<svg width="113" height="84" viewBox="0 0 113 84" fill="none" xmlns="http://www.w3.org/2000/svg">
<g filter="url(#filter0_bd_15_1137)">
<path fill-rule="evenodd" clip-rule="evenodd" d="M79.2 58L39.6001 58V57.9944C39.4672 57.9981 39.3338 58 39.2001 58C31.4681 58 25.2001 51.732 25.2001 44C25.2001 36.3575 31.3238 30.1453 38.9321 30.0025C38.8449 29.2137 38.8 28.4121 38.8 27.6C38.8 15.6706 48.4707 6 60.4 6C69.204 6 76.7777 11.2672 80.142 18.8222C90.5293 19.3137 98.8 27.891 98.8 38.4C98.8 49.0911 90.2402 57.783 79.6001 57.996V58L79.2 58Z" fill="url(#paint0_radial_15_1137)" shape-rendering="crispEdges"/>
</g>
<g filter="url(#filter1_bd_15_1137)">
<path fill-rule="evenodd" clip-rule="evenodd" d="M20.4 69.9944C20.2671 69.9981 20.1338 70 20 70C12.268 70 6 63.732 6 56C6 48.3575 12.1237 42.1453 19.7321 42.0025C19.6448 41.2137 19.6 40.4121 19.6 39.6C19.6 27.6706 29.2706 18 41.2 18C50.0039 18 57.5776 23.2672 60.9419 30.8222C71.3293 31.3136 79.6001 39.8909 79.6001 50.3999C79.6001 61.0911 71.0401 69.783 60.4 69.9959V70H20.4V69.9944Z" fill="url(#paint1_radial_15_1137)" shape-rendering="crispEdges"/>
</g>
<defs>
<filter id="filter0_bd_15_1137" x="15.2001" y="-4" width="97.5999" height="76" filterUnits="userSpaceOnUse" color-interpolation-filters="sRGB">
<feFlood flood-opacity="0" result="BackgroundImageFix"/>
<feGaussianBlur in="BackgroundImage" stdDeviation="5"/>
<feComposite in2="SourceAlpha" operator="in" result="effect1_backgroundBlur_15_1137"/>
<feColorMatrix in="SourceAlpha" type="matrix" values="0 0 0 0 0 0 0 0 0 0 0 0 0 0 0 0 0 0 127 0" result="hardAlpha"/>
<feOffset dx="4" dy="4"/>
<feGaussianBlur stdDeviation="5"/>
<feComposite in2="hardAlpha" operator="out"/>
<feColorMatrix type="matrix" values="0 0 0 0 0 0 0 0 0 0.273083 0 0 0 0 0.470833 0 0 0 0.2 0"/>
<feBlend mode="normal" in2="effect1_backgroundBlur_15_1137" result="effect2_dropShadow_15_1137"/>
<feBlend mode="normal" in="SourceGraphic" in2="effect2_dropShadow_15_1137" result="shape"/>
</filter>
<filter id="filter1_bd_15_1137" x="-4" y="8" width="97.6001" height="76" filterUnits="userSpaceOnUse" color-interpolation-filters="sRGB">
<feFlood flood-opacity="0" result="BackgroundImageFix"/>
<feGaussianBlur in="BackgroundImage" stdDeviation="5"/>
<feComposite in2="SourceAlpha" operator="in" result="effect1_backgroundBlur_15_1137"/>
<feColorMatrix in="SourceAlpha" type="matrix" values="0 0 0 0 0 0 0 0 0 0 0 0 0 0 0 0 0 0 127 0" result="hardAlpha"/>
<feOffset dx="4" dy="4"/>
<feGaussianBlur stdDeviation="5"/>
<feComposite in2="hardAlpha" operator="out"/>
<feColorMatrix type="matrix" values="0 0 0 0 0 0 0 0 0 0.273083 0 0 0 0 0.470833 0 0 0 0.2 0"/>
<feBlend mode="normal" in2="effect1_backgroundBlur_15_1137" result="effect2_dropShadow_15_1137"/>
<feBlend mode="normal" in="SourceGraphic" in2="effect2_dropShadow_15_1137" result="shape"/>
</filter>
<radialGradient id="paint0_radial_15_1137" cx="0" cy="0" r="1" gradientUnits="userSpaceOnUse" gradientTransform="translate(62.0001 37.2) rotate(132.044) scale(60.3258 85.3842)">
<stop stop-color="white" stop-opacity="0.47"/>
<stop offset="1" stop-color="white" stop-opacity="0.91"/>
</radialGradient>
<radialGradient id="paint1_radial_15_1137" cx="0" cy="0" r="1" gradientUnits="userSpaceOnUse" gradientTransform="translate(42.8 49.2) rotate(132.044) scale(60.3258 85.3842)">
<stop stop-color="white" stop-opacity="0.47"/>
<stop offset="1" stop-color="white" stop-opacity="0.91"/>
</radialGradient>
</defs>
</svg>
