<svg width="104" height="84" viewBox="0 0 104 84" fill="none" xmlns="http://www.w3.org/2000/svg">
<g filter="url(#filter0_bd_16_2222)">
<path fill-rule="evenodd" clip-rule="evenodd" d="M71.6303 52.1637H36.5117V52.1587C36.3938 52.162 36.2754 52.1637 36.1566 52.1637C29.2924 52.1637 23.7279 46.5992 23.7279 39.735C23.7279 32.9503 29.1644 27.4353 35.9189 27.3086C35.8414 26.6083 35.8016 25.8966 35.8016 25.1757C35.8016 14.5852 44.3868 6 54.9773 6C62.7931 6 69.5168 10.676 72.5034 17.3831C81.7249 17.8195 89.0673 25.4341 89.0673 34.7635C89.0673 44.2547 81.4682 51.9711 72.0222 52.1602V52.1637H71.704C71.6917 52.1637 71.6794 52.1637 71.6671 52.1637C71.6548 52.1637 71.6426 52.1637 71.6303 52.1637Z" fill="url(#paint0_radial_16_2222)" shape-rendering="crispEdges"/>
</g>
<g filter="url(#filter1_bd_16_2222)">
<path fill-rule="evenodd" clip-rule="evenodd" d="M54.5649 62.8169H19.4665V62.8119C19.3486 62.8152 19.2302 62.8168 19.1115 62.8168C12.2473 62.8168 6.6828 57.2523 6.6828 50.3882C6.6828 43.6035 12.1192 38.0885 18.8736 37.9617C18.7961 37.2614 18.7563 36.5498 18.7563 35.8289C18.7563 25.2384 27.3415 16.6532 37.932 16.6532C45.7478 16.6532 52.4715 21.3292 55.4581 28.0364C64.6797 28.4727 72.0221 36.0873 72.0221 45.4168C72.0221 54.908 64.423 62.6243 54.9771 62.8134V62.8169H54.679C54.66 62.8169 54.641 62.817 54.622 62.817C54.603 62.817 54.584 62.8169 54.5649 62.8169Z" fill="url(#paint1_radial_16_2222)" shape-rendering="crispEdges"/>
</g>
<g filter="url(#filter2_d_16_2222)">
<rect width="10.7116" height="2.14227" rx="1.07113" transform="matrix(0.711783 -0.7024 0.710566 0.703631 11.848 68.4927)" fill="url(#paint2_linear_16_2222)"/>
<rect width="10.7116" height="2.14227" rx="1.07113" transform="matrix(0.711783 -0.7024 0.710566 0.703631 29.803 68.4927)" fill="url(#paint3_linear_16_2222)"/>
<rect width="10.7116" height="2.14227" rx="1.07113" transform="matrix(0.711783 -0.7024 0.710566 0.703631 47.7582 68.4927)" fill="url(#paint4_linear_16_2222)"/>
<rect width="10.7116" height="2.14227" rx="1.07113" transform="matrix(0.711783 -0.7024 0.710566 0.703631 65.7133 68.4927)" fill="url(#paint5_linear_16_2222)"/>
<rect width="10.7116" height="2.14227" rx="1.07113" transform="matrix(0.711783 -0.7024 0.710566 0.703631 23.3392 58.9774)" fill="url(#paint6_linear_16_2222)"/>
<rect width="10.7116" height="2.14227" rx="1.07113" transform="matrix(0.711783 -0.7024 0.710566 0.703631 41.2943 58.9774)" fill="url(#paint7_linear_16_2222)"/>
<rect width="10.7116" height="2.14227" rx="1.07113" transform="matrix(0.711783 -0.7024 0.710566 0.703631 59.2494 58.9774)" fill="url(#paint8_linear_16_2222)"/>
</g>
<defs>
<filter id="filter0_bd_16_2222" x="13.7279" y="-4" width="89.3394" height="70.1637" filterUnits="userSpaceOnUse" color-interpolation-filters="sRGB">
<feFlood flood-opacity="0" result="BackgroundImageFix"/>
<feGaussianBlur in="BackgroundImage" stdDeviation="5"/>
<feComposite in2="SourceAlpha" operator="in" result="effect1_backgroundBlur_16_2222"/>
<feColorMatrix in="SourceAlpha" type="matrix" values="0 0 0 0 0 0 0 0 0 0 0 0 0 0 0 0 0 0 127 0" result="hardAlpha"/>
<feOffset dx="4" dy="4"/>
<feGaussianBlur stdDeviation="5"/>
<feComposite in2="hardAlpha" operator="out"/>
<feColorMatrix type="matrix" values="0 0 0 0 0 0 0 0 0 0.273083 0 0 0 0 0.470833 0 0 0 0.2 0"/>
<feBlend mode="normal" in2="effect1_backgroundBlur_16_2222" result="effect2_dropShadow_16_2222"/>
<feBlend mode="normal" in="SourceGraphic" in2="effect2_dropShadow_16_2222" result="shape"/>
</filter>
<filter id="filter1_bd_16_2222" x="-3.3172" y="6.6532" width="89.3394" height="70.1638" filterUnits="userSpaceOnUse" color-interpolation-filters="sRGB">
<feFlood flood-opacity="0" result="BackgroundImageFix"/>
<feGaussianBlur in="BackgroundImage" stdDeviation="5"/>
<feComposite in2="SourceAlpha" operator="in" result="effect1_backgroundBlur_16_2222"/>
<feColorMatrix in="SourceAlpha" type="matrix" values="0 0 0 0 0 0 0 0 0 0 0 0 0 0 0 0 0 0 127 0" result="hardAlpha"/>
<feOffset dx="4" dy="4"/>
<feGaussianBlur stdDeviation="5"/>
<feComposite in2="hardAlpha" operator="out"/>
<feColorMatrix type="matrix" values="0 0 0 0 0 0 0 0 0 0.273083 0 0 0 0 0.470833 0 0 0 0.2 0"/>
<feBlend mode="normal" in2="effect1_backgroundBlur_16_2222" result="effect2_dropShadow_16_2222"/>
<feBlend mode="normal" in="SourceGraphic" in2="effect2_dropShadow_16_2222" result="shape"/>
</filter>
<filter id="filter2_d_16_2222" x="6.29419" y="45.8947" width="82.1194" height="37.6643" filterUnits="userSpaceOnUse" color-interpolation-filters="sRGB">
<feFlood flood-opacity="0" result="BackgroundImageFix"/>
<feColorMatrix in="SourceAlpha" type="matrix" values="0 0 0 0 0 0 0 0 0 0 0 0 0 0 0 0 0 0 127 0" result="hardAlpha"/>
<feOffset dx="4" dy="4"/>
<feGaussianBlur stdDeviation="5"/>
<feComposite in2="hardAlpha" operator="out"/>
<feColorMatrix type="matrix" values="0 0 0 0 0 0 0 0 0 0.273083 0 0 0 0 0.470833 0 0 0 0.2 0"/>
<feBlend mode="normal" in2="BackgroundImageFix" result="effect1_dropShadow_16_2222"/>
<feBlend mode="normal" in="SourceGraphic" in2="effect1_dropShadow_16_2222" result="shape"/>
</filter>
<radialGradient id="paint0_radial_16_2222" cx="0" cy="0" r="1" gradientUnits="userSpaceOnUse" gradientTransform="translate(56.3976 33.6982) rotate(132.044) scale(53.555 75.8009)">
<stop stop-color="white" stop-opacity="0.47"/>
<stop offset="1" stop-color="white" stop-opacity="0.91"/>
</radialGradient>
<radialGradient id="paint1_radial_16_2222" cx="0" cy="0" r="1" gradientUnits="userSpaceOnUse" gradientTransform="translate(39.3525 44.3514) rotate(132.044) scale(53.555 75.8009)">
<stop stop-color="white" stop-opacity="0.47"/>
<stop offset="1" stop-color="white" stop-opacity="0.91"/>
</radialGradient>
<linearGradient id="paint2_linear_16_2222" x1="8.56924" y1="-1.07113" x2="4.61432" y2="4.86137" gradientUnits="userSpaceOnUse">
<stop stop-color="#3F81E4"/>
<stop offset="1" stop-color="#0044C9"/>
</linearGradient>
<linearGradient id="paint3_linear_16_2222" x1="8.56924" y1="-1.07113" x2="4.61432" y2="4.86137" gradientUnits="userSpaceOnUse">
<stop stop-color="#3F81E4"/>
<stop offset="1" stop-color="#0044C9"/>
</linearGradient>
<linearGradient id="paint4_linear_16_2222" x1="8.56924" y1="-1.07113" x2="4.61432" y2="4.86137" gradientUnits="userSpaceOnUse">
<stop stop-color="#3F81E4"/>
<stop offset="1" stop-color="#0044C9"/>
</linearGradient>
<linearGradient id="paint5_linear_16_2222" x1="8.56924" y1="-1.07113" x2="4.61432" y2="4.86137" gradientUnits="userSpaceOnUse">
<stop stop-color="#3F81E4"/>
<stop offset="1" stop-color="#0044C9"/>
</linearGradient>
<linearGradient id="paint6_linear_16_2222" x1="8.56924" y1="-1.07113" x2="4.61432" y2="4.86137" gradientUnits="userSpaceOnUse">
<stop stop-color="#3F81E4"/>
<stop offset="1" stop-color="#0044C9"/>
</linearGradient>
<linearGradient id="paint7_linear_16_2222" x1="8.56924" y1="-1.07113" x2="4.61432" y2="4.86137" gradientUnits="userSpaceOnUse">
<stop stop-color="#3F81E4"/>
<stop offset="1" stop-color="#0044C9"/>
</linearGradient>
<linearGradient id="paint8_linear_16_2222" x1="8.56924" y1="-1.07113" x2="4.61432" y2="4.86137" gradientUnits="userSpaceOnUse">
<stop stop-color="#3F81E4"/>
<stop offset="1" stop-color="#0044C9"/>
</linearGradient>
</defs>
</svg>
