<svg width="84" height="71" viewBox="0 0 84 71" fill="none" xmlns="http://www.w3.org/2000/svg">
<g filter="url(#filter0_d_15_1180)">
<circle cx="23.8113" cy="23.8113" r="17.8113" fill="url(#paint0_linear_15_1180)"/>
</g>
<g filter="url(#filter1_bd_15_1180)">
<path fill-rule="evenodd" clip-rule="evenodd" d="M54.6038 56.1132H24.717V56.109C24.6167 56.1118 24.5161 56.1132 24.4151 56.1132C18.5796 56.1132 13.8491 51.3826 13.8491 45.5472C13.8491 39.7793 18.4708 35.0908 24.2129 34.983C24.147 34.3877 24.1132 33.7827 24.1132 33.1698C24.1132 24.1665 31.4118 16.8679 40.4151 16.8679C47.0596 16.8679 52.7757 20.8432 55.3147 26.5451C63.1542 26.916 69.3963 33.3894 69.3963 41.3208C69.3963 49.3895 62.936 55.9495 54.9057 56.1102V56.1132H54.6038Z" fill="url(#paint1_radial_15_1180)" shape-rendering="crispEdges"/>
</g>
<path d="M32.3648 54.1509H36.9435C37.1935 54.1509 37.3963 54.3537 37.3963 54.6038C37.3963 54.8539 37.1935 55.0566 36.9435 55.0566H32.3648V54.1509Z" fill="url(#paint2_linear_15_1180)"/>
<path d="M32.3648 54.6038L32.3648 50.5786C32.3648 50.3007 32.5901 50.0755 32.868 50.0755C33.1459 50.0755 33.3711 50.3007 33.3711 50.5786L33.3711 54.6038L32.3648 54.6038Z" fill="url(#paint3_linear_15_1180)"/>
<path d="M33.371 55.0565L28.7924 55.0565C28.5423 55.0565 28.3396 54.8538 28.3396 54.6037C28.3396 54.3536 28.5423 54.1509 28.7924 54.1509L33.371 54.1509L33.371 55.0565Z" fill="url(#paint4_linear_15_1180)"/>
<path d="M33.371 54.6038L33.371 58.6289C33.371 58.9068 33.1457 59.1321 32.8679 59.1321C32.59 59.1321 32.3647 58.9068 32.3647 58.6289L32.3647 54.6038L33.371 54.6038Z" fill="url(#paint5_linear_15_1180)"/>
<path d="M33.2798 54.1831L36.4818 57.0649C36.6783 57.2417 36.6783 57.5285 36.4818 57.7053C36.2853 57.8821 35.9667 57.8821 35.7702 57.7053L32.5682 54.8235L33.2798 54.1831Z" fill="url(#paint6_linear_15_1180)"/>
<path d="M32.5682 54.1831L35.7702 51.3013C35.9667 51.1245 36.2853 51.1245 36.4818 51.3013C36.6783 51.4782 36.6783 51.7649 36.4818 51.9417L33.2798 54.8235L32.5682 54.1831Z" fill="url(#paint7_linear_15_1180)"/>
<path d="M32.5682 54.8234L29.3662 51.9416C29.1698 51.7648 29.1698 51.4781 29.3662 51.3012C29.5627 51.1244 29.8813 51.1244 30.0778 51.3012L33.2798 54.183L32.5682 54.8234Z" fill="url(#paint8_linear_15_1180)"/>
<path d="M33.2798 54.8234L30.0778 57.7052C29.8813 57.8821 29.5627 57.8821 29.3662 57.7052C29.1697 57.5284 29.1697 57.2417 29.3662 57.0648L32.5682 54.183L33.2798 54.8234Z" fill="url(#paint9_linear_15_1180)"/>
<path d="M48.063 50.5283H52.6416C52.8917 50.5283 53.0944 50.7311 53.0944 50.9812C53.0944 51.2312 52.8917 51.434 52.6416 51.434H48.063V50.5283Z" fill="url(#paint10_linear_15_1180)"/>
<path d="M48.063 50.9811L48.063 46.956C48.063 46.6781 48.2882 46.4528 48.5661 46.4528C48.844 46.4528 49.0692 46.6781 49.0692 46.956L49.0692 50.9811L48.063 50.9811Z" fill="url(#paint11_linear_15_1180)"/>
<path d="M49.0692 51.4338L44.4905 51.4338C44.2404 51.4338 44.0377 51.2311 44.0377 50.981C44.0377 50.7309 44.2404 50.5282 44.4905 50.5282L49.0692 50.5282L49.0692 51.4338Z" fill="url(#paint12_linear_15_1180)"/>
<path d="M49.0692 50.9811L49.0692 55.0063C49.0692 55.2842 48.8439 55.5094 48.566 55.5094C48.2881 55.5094 48.0629 55.2842 48.0629 55.0063L48.0629 50.9811L49.0692 50.9811Z" fill="url(#paint13_linear_15_1180)"/>
<path d="M48.9779 50.5605L52.1799 53.4423C52.3764 53.6191 52.3764 53.9058 52.1799 54.0827C51.9834 54.2595 51.6648 54.2595 51.4683 54.0827L48.2664 51.2009L48.9779 50.5605Z" fill="url(#paint14_linear_15_1180)"/>
<path d="M48.2664 50.5605L51.4683 47.6787C51.6648 47.5019 51.9834 47.5019 52.1799 47.6787C52.3764 47.8555 52.3764 48.1422 52.1799 48.3191L48.9779 51.2009L48.2664 50.5605Z" fill="url(#paint15_linear_15_1180)"/>
<path d="M48.2664 51.2008L45.0644 48.319C44.8679 48.1422 44.8679 47.8555 45.0644 47.6786C45.2609 47.5018 45.5794 47.5018 45.7759 47.6786L48.9779 50.5604L48.2664 51.2008Z" fill="url(#paint16_linear_15_1180)"/>
<path d="M48.9779 51.2008L45.7759 54.0826C45.5794 54.2594 45.2608 54.2594 45.0644 54.0826C44.8679 53.9058 44.8679 53.619 45.0644 53.4422L48.2664 50.5604L48.9779 51.2008Z" fill="url(#paint17_linear_15_1180)"/>
<path d="M42.0252 65.0189H46.6039C46.8539 65.0189 47.0567 65.2216 47.0567 65.4717C47.0567 65.7218 46.8539 65.9245 46.6039 65.9245H42.0252V65.0189Z" fill="url(#paint18_linear_15_1180)"/>
<path d="M42.0252 65.4717L42.0252 61.4465C42.0252 61.1686 42.2505 60.9434 42.5284 60.9434C42.8063 60.9434 43.0315 61.1686 43.0315 61.4465L43.0315 65.4717L42.0252 65.4717Z" fill="url(#paint19_linear_15_1180)"/>
<path d="M43.0314 65.9244L38.4528 65.9244C38.2027 65.9244 38 65.7216 38 65.4715C38 65.2215 38.2027 65.0187 38.4528 65.0187L43.0314 65.0187L43.0314 65.9244Z" fill="url(#paint20_linear_15_1180)"/>
<path d="M43.0314 65.4717L43.0314 69.4968C43.0314 69.7747 42.8061 70 42.5283 70C42.2504 70 42.0251 69.7747 42.0251 69.4968L42.0251 65.4717L43.0314 65.4717Z" fill="url(#paint21_linear_15_1180)"/>
<path d="M42.9402 65.051L46.1421 67.9328C46.3386 68.1097 46.3386 68.3964 46.1421 68.5732C45.9457 68.7501 45.6271 68.7501 45.4306 68.5732L42.2286 65.6914L42.9402 65.051Z" fill="url(#paint22_linear_15_1180)"/>
<path d="M42.2286 65.051L45.4306 62.1692C45.6271 61.9924 45.9457 61.9924 46.1422 62.1692C46.3386 62.3461 46.3386 62.6328 46.1422 62.8096L42.9402 65.6914L42.2286 65.051Z" fill="url(#paint23_linear_15_1180)"/>
<path d="M42.2286 65.6913L39.0266 62.8096C38.8301 62.6327 38.8301 62.346 39.0266 62.1692C39.2231 61.9923 39.5417 61.9923 39.7382 62.1692L42.9402 65.0509L42.2286 65.6913Z" fill="url(#paint24_linear_15_1180)"/>
<path d="M42.9402 65.6913L39.7382 68.5731C39.5417 68.75 39.2231 68.75 39.0266 68.5731C38.8301 68.3963 38.8301 68.1096 39.0266 67.9327L42.2286 65.0509L42.9402 65.6913Z" fill="url(#paint25_linear_15_1180)"/>
<defs>
<filter id="filter0_d_15_1180" x="0" y="0" width="55.6227" height="55.6226" filterUnits="userSpaceOnUse" color-interpolation-filters="sRGB">
<feFlood flood-opacity="0" result="BackgroundImageFix"/>
<feColorMatrix in="SourceAlpha" type="matrix" values="0 0 0 0 0 0 0 0 0 0 0 0 0 0 0 0 0 0 127 0" result="hardAlpha"/>
<feOffset dx="4" dy="4"/>
<feGaussianBlur stdDeviation="5"/>
<feComposite in2="hardAlpha" operator="out"/>
<feColorMatrix type="matrix" values="0 0 0 0 0 0 0 0 0 0.273083 0 0 0 0 0.470833 0 0 0 0.44 0"/>
<feBlend mode="normal" in2="BackgroundImageFix" result="effect1_dropShadow_15_1180"/>
<feBlend mode="normal" in="SourceGraphic" in2="effect1_dropShadow_15_1180" result="shape"/>
</filter>
<filter id="filter1_bd_15_1180" x="3.84906" y="6.86792" width="79.5472" height="63.2453" filterUnits="userSpaceOnUse" color-interpolation-filters="sRGB">
<feFlood flood-opacity="0" result="BackgroundImageFix"/>
<feGaussianBlur in="BackgroundImage" stdDeviation="5"/>
<feComposite in2="SourceAlpha" operator="in" result="effect1_backgroundBlur_15_1180"/>
<feColorMatrix in="SourceAlpha" type="matrix" values="0 0 0 0 0 0 0 0 0 0 0 0 0 0 0 0 0 0 127 0" result="hardAlpha"/>
<feOffset dx="4" dy="4"/>
<feGaussianBlur stdDeviation="5"/>
<feComposite in2="hardAlpha" operator="out"/>
<feColorMatrix type="matrix" values="0 0 0 0 0 0 0 0 0 0.273083 0 0 0 0 0.470833 0 0 0 0.2 0"/>
<feBlend mode="normal" in2="effect1_backgroundBlur_15_1180" result="effect2_dropShadow_15_1180"/>
<feBlend mode="normal" in="SourceGraphic" in2="effect2_dropShadow_15_1180" result="shape"/>
</filter>
<linearGradient id="paint0_linear_15_1180" x1="37.6981" y1="13.2453" x2="13.2453" y2="36.4906" gradientUnits="userSpaceOnUse">
<stop stop-color="#FFF48D"/>
<stop offset="1" stop-color="#FF9D2A"/>
</linearGradient>
<radialGradient id="paint1_radial_15_1180" cx="0" cy="0" r="1" gradientUnits="userSpaceOnUse" gradientTransform="translate(41.6226 40.4151) rotate(132.044) scale(45.5289 64.4409)">
<stop stop-color="white" stop-opacity="0.47"/>
<stop offset="1" stop-color="white" stop-opacity="0.91"/>
</radialGradient>
<linearGradient id="paint2_linear_15_1180" x1="36.39" y1="53.6981" x2="34.7918" y2="56.3618" gradientUnits="userSpaceOnUse">
<stop stop-color="#3F81E4"/>
<stop offset="1" stop-color="#0044C9"/>
</linearGradient>
<linearGradient id="paint3_linear_15_1180" x1="31.8617" y1="50.9811" x2="34.4608" y2="52.9063" gradientUnits="userSpaceOnUse">
<stop stop-color="#3F81E4"/>
<stop offset="1" stop-color="#0044C9"/>
</linearGradient>
<linearGradient id="paint4_linear_15_1180" x1="29.3458" y1="55.5093" x2="30.9441" y2="52.8456" gradientUnits="userSpaceOnUse">
<stop stop-color="#3F81E4"/>
<stop offset="1" stop-color="#0044C9"/>
</linearGradient>
<linearGradient id="paint5_linear_15_1180" x1="33.8741" y1="58.2264" x2="31.2751" y2="56.3012" gradientUnits="userSpaceOnUse">
<stop stop-color="#3F81E4"/>
<stop offset="1" stop-color="#0044C9"/>
</linearGradient>
<linearGradient id="paint6_linear_15_1180" x1="36.4818" y1="56.4245" x2="33.227" y2="57.1478" gradientUnits="userSpaceOnUse">
<stop stop-color="#3F81E4"/>
<stop offset="1" stop-color="#0044C9"/>
</linearGradient>
<linearGradient id="paint7_linear_15_1180" x1="35.0587" y1="51.3013" x2="35.5946" y2="54.2788" gradientUnits="userSpaceOnUse">
<stop stop-color="#3F81E4"/>
<stop offset="1" stop-color="#0044C9"/>
</linearGradient>
<linearGradient id="paint8_linear_15_1180" x1="29.3662" y1="52.582" x2="32.621" y2="51.8588" gradientUnits="userSpaceOnUse">
<stop stop-color="#3F81E4"/>
<stop offset="1" stop-color="#0044C9"/>
</linearGradient>
<linearGradient id="paint9_linear_15_1180" x1="30.7893" y1="57.7052" x2="30.2534" y2="54.7278" gradientUnits="userSpaceOnUse">
<stop stop-color="#3F81E4"/>
<stop offset="1" stop-color="#0044C9"/>
</linearGradient>
<linearGradient id="paint10_linear_15_1180" x1="52.0881" y1="50.0755" x2="50.4899" y2="52.7392" gradientUnits="userSpaceOnUse">
<stop stop-color="#3F81E4"/>
<stop offset="1" stop-color="#0044C9"/>
</linearGradient>
<linearGradient id="paint11_linear_15_1180" x1="47.5598" y1="47.3585" x2="50.1589" y2="49.2837" gradientUnits="userSpaceOnUse">
<stop stop-color="#3F81E4"/>
<stop offset="1" stop-color="#0044C9"/>
</linearGradient>
<linearGradient id="paint12_linear_15_1180" x1="45.044" y1="51.8867" x2="46.6422" y2="49.223" gradientUnits="userSpaceOnUse">
<stop stop-color="#3F81E4"/>
<stop offset="1" stop-color="#0044C9"/>
</linearGradient>
<linearGradient id="paint13_linear_15_1180" x1="49.5723" y1="54.6038" x2="46.9732" y2="52.6786" gradientUnits="userSpaceOnUse">
<stop stop-color="#3F81E4"/>
<stop offset="1" stop-color="#0044C9"/>
</linearGradient>
<linearGradient id="paint14_linear_15_1180" x1="52.1799" y1="52.8019" x2="48.9252" y2="53.5252" gradientUnits="userSpaceOnUse">
<stop stop-color="#3F81E4"/>
<stop offset="1" stop-color="#0044C9"/>
</linearGradient>
<linearGradient id="paint15_linear_15_1180" x1="50.7568" y1="47.6787" x2="51.2927" y2="50.6561" gradientUnits="userSpaceOnUse">
<stop stop-color="#3F81E4"/>
<stop offset="1" stop-color="#0044C9"/>
</linearGradient>
<linearGradient id="paint16_linear_15_1180" x1="45.0644" y1="48.9594" x2="48.3191" y2="48.2361" gradientUnits="userSpaceOnUse">
<stop stop-color="#3F81E4"/>
<stop offset="1" stop-color="#0044C9"/>
</linearGradient>
<linearGradient id="paint17_linear_15_1180" x1="46.4875" y1="54.0826" x2="45.9515" y2="51.1052" gradientUnits="userSpaceOnUse">
<stop stop-color="#3F81E4"/>
<stop offset="1" stop-color="#0044C9"/>
</linearGradient>
<linearGradient id="paint18_linear_15_1180" x1="46.0504" y1="64.566" x2="44.4522" y2="67.2297" gradientUnits="userSpaceOnUse">
<stop stop-color="#3F81E4"/>
<stop offset="1" stop-color="#0044C9"/>
</linearGradient>
<linearGradient id="paint19_linear_15_1180" x1="41.5221" y1="61.849" x2="44.1212" y2="63.7743" gradientUnits="userSpaceOnUse">
<stop stop-color="#3F81E4"/>
<stop offset="1" stop-color="#0044C9"/>
</linearGradient>
<linearGradient id="paint20_linear_15_1180" x1="39.0062" y1="66.3772" x2="40.6045" y2="63.7135" gradientUnits="userSpaceOnUse">
<stop stop-color="#3F81E4"/>
<stop offset="1" stop-color="#0044C9"/>
</linearGradient>
<linearGradient id="paint21_linear_15_1180" x1="43.5345" y1="69.0943" x2="40.9355" y2="67.1691" gradientUnits="userSpaceOnUse">
<stop stop-color="#3F81E4"/>
<stop offset="1" stop-color="#0044C9"/>
</linearGradient>
<linearGradient id="paint22_linear_15_1180" x1="46.1421" y1="67.2924" x2="42.8874" y2="68.0157" gradientUnits="userSpaceOnUse">
<stop stop-color="#3F81E4"/>
<stop offset="1" stop-color="#0044C9"/>
</linearGradient>
<linearGradient id="paint23_linear_15_1180" x1="44.719" y1="62.1692" x2="45.255" y2="65.1467" gradientUnits="userSpaceOnUse">
<stop stop-color="#3F81E4"/>
<stop offset="1" stop-color="#0044C9"/>
</linearGradient>
<linearGradient id="paint24_linear_15_1180" x1="39.0266" y1="63.4499" x2="42.2813" y2="62.7267" gradientUnits="userSpaceOnUse">
<stop stop-color="#3F81E4"/>
<stop offset="1" stop-color="#0044C9"/>
</linearGradient>
<linearGradient id="paint25_linear_15_1180" x1="40.4497" y1="68.5731" x2="39.9138" y2="65.5957" gradientUnits="userSpaceOnUse">
<stop stop-color="#3F81E4"/>
<stop offset="1" stop-color="#0044C9"/>
</linearGradient>
</defs>
</svg>
