<svg width="83" height="70" viewBox="0 0 83 70" fill="none" xmlns="http://www.w3.org/2000/svg">
<g filter="url(#filter0_d_16_1972)">
<path d="M19.6411 29.4706C28.5628 40.814 47.3831 31.5146 37.3921 38.3695C27.4011 45.2244 16.0975 43.0273 10.3702 34.6797C4.6429 26.3322 8.30411 13.8676 16.6517 8.14031C24.9992 2.413 10.7193 18.1273 19.6411 29.4706Z" fill="url(#paint0_linear_16_1972)"/>
</g>
<g filter="url(#filter1_bd_16_1972)">
<path fill-rule="evenodd" clip-rule="evenodd" d="M22.9903 55.7044C22.8871 55.7073 22.7835 55.7087 22.6796 55.7087C16.6742 55.7087 11.8058 50.8404 11.8058 44.835C11.8058 38.899 16.5622 34.074 22.4716 33.9631C22.4038 33.3504 22.369 32.7278 22.369 32.0971C22.369 22.8316 29.8802 15.3204 39.1457 15.3204C45.9837 15.3204 51.8663 19.4114 54.4792 25.2794C62.5471 25.6612 68.9709 32.3231 68.9709 40.4854C68.9709 48.7892 62.3225 55.5402 54.0583 55.7056V55.7088H22.9903V55.7044Z" fill="url(#paint1_radial_16_1972)" shape-rendering="crispEdges"/>
</g>
<path d="M30.861 53.6893H35.5729C35.8303 53.6893 36.039 53.898 36.039 54.1554C36.039 54.4127 35.8303 54.6214 35.5729 54.6214H30.861V53.6893Z" fill="url(#paint2_linear_16_1972)"/>
<path d="M30.861 54.1553L30.861 50.0129C30.861 49.727 31.0928 49.4951 31.3788 49.4951C31.6647 49.4951 31.8966 49.727 31.8966 50.0129L31.8966 54.1553L30.861 54.1553Z" fill="url(#paint3_linear_16_1972)"/>
<path d="M31.8964 54.6213L27.1845 54.6213C26.9271 54.6213 26.7184 54.4126 26.7184 54.1553C26.7184 53.8979 26.9271 53.6892 27.1845 53.6892L31.8964 53.6892L31.8964 54.6213Z" fill="url(#paint4_linear_16_1972)"/>
<path d="M31.8964 54.1553L31.8964 58.2977C31.8964 58.5837 31.6646 58.8155 31.3786 58.8155C31.0927 58.8155 30.8608 58.5837 30.8608 58.2977L30.8608 54.1553L31.8964 54.1553Z" fill="url(#paint5_linear_16_1972)"/>
<path d="M31.8026 53.7224L35.0978 56.6881C35.3 56.8701 35.3 57.1652 35.0978 57.3472C34.8956 57.5292 34.5677 57.5292 34.3655 57.3472L31.0703 54.3815L31.8026 53.7224Z" fill="url(#paint6_linear_16_1972)"/>
<path d="M31.0703 53.7224L34.3655 50.7567C34.5677 50.5747 34.8956 50.5747 35.0978 50.7567C35.3 50.9387 35.3 51.2337 35.0978 51.4157L31.8025 54.3815L31.0703 53.7224Z" fill="url(#paint7_linear_16_1972)"/>
<path d="M31.0703 54.3813L27.775 51.4156C27.5728 51.2336 27.5728 50.9386 27.775 50.7566C27.9772 50.5746 28.3051 50.5746 28.5073 50.7566L31.8025 53.7223L31.0703 54.3813Z" fill="url(#paint8_linear_16_1972)"/>
<path d="M31.8026 54.3813L28.5073 57.3471C28.3051 57.5291 27.9772 57.5291 27.775 57.3471C27.5728 57.1651 27.5728 56.87 27.775 56.688L31.0703 53.7223L31.8026 54.3813Z" fill="url(#paint9_linear_16_1972)"/>
<path d="M47.0161 49.9612H51.7281C51.9855 49.9612 52.1941 50.1698 52.1941 50.4272C52.1941 50.6846 51.9855 50.8932 51.7281 50.8932H47.0161V49.9612Z" fill="url(#paint10_linear_16_1972)"/>
<path d="M47.0161 50.4272L47.0161 46.2848C47.0161 45.9988 47.2479 45.767 47.5339 45.767C47.8199 45.767 48.0517 45.9988 48.0517 46.2848L48.0517 50.4272L47.0161 50.4272Z" fill="url(#paint11_linear_16_1972)"/>
<path d="M48.0516 50.8931L43.3397 50.8931C43.0823 50.8931 42.8736 50.6844 42.8736 50.427C42.8736 50.1697 43.0823 49.961 43.3397 49.961L48.0516 49.961L48.0516 50.8931Z" fill="url(#paint12_linear_16_1972)"/>
<path d="M48.0516 50.4272L48.0516 54.5696C48.0516 54.8556 47.8198 55.0874 47.5338 55.0874C47.2479 55.0874 47.016 54.8556 47.016 54.5696L47.016 50.4272L48.0516 50.4272Z" fill="url(#paint13_linear_16_1972)"/>
<path d="M47.9578 49.9942L51.253 52.9599C51.4552 53.1419 51.4552 53.437 51.253 53.619C51.0508 53.801 50.723 53.801 50.5207 53.619L47.2255 50.6533L47.9578 49.9942Z" fill="url(#paint14_linear_16_1972)"/>
<path d="M47.2255 49.9942L50.5207 47.0285C50.7229 46.8465 51.0508 46.8465 51.253 47.0285C51.4552 47.2105 51.4552 47.5055 51.253 47.6875L47.9577 50.6533L47.2255 49.9942Z" fill="url(#paint15_linear_16_1972)"/>
<path d="M47.2255 50.6533L43.9302 47.6875C43.728 47.5055 43.728 47.2105 43.9302 47.0285C44.1324 46.8465 44.4603 46.8465 44.6625 47.0285L47.9577 49.9942L47.2255 50.6533Z" fill="url(#paint16_linear_16_1972)"/>
<path d="M47.9578 50.6533L44.6625 53.619C44.4603 53.801 44.1324 53.801 43.9302 53.619C43.728 53.437 43.728 53.1419 43.9302 52.9599L47.2255 49.9942L47.9578 50.6533Z" fill="url(#paint17_linear_16_1972)"/>
<path d="M40.8027 64.8737H45.5146C45.772 64.8737 45.9807 65.0824 45.9807 65.3397C45.9807 65.5971 45.772 65.8058 45.5146 65.8058H40.8027V64.8737Z" fill="url(#paint18_linear_16_1972)"/>
<path d="M40.8027 65.3398L40.8027 61.1974C40.8027 60.9114 41.0345 60.6796 41.3205 60.6796C41.6064 60.6796 41.8383 60.9114 41.8383 61.1974L41.8383 65.3398L40.8027 65.3398Z" fill="url(#paint19_linear_16_1972)"/>
<path d="M41.8382 65.8057L37.1262 65.8057C36.8688 65.8057 36.6602 65.5971 36.6602 65.3397C36.6602 65.0823 36.8688 64.8737 37.1262 64.8737L41.8382 64.8737L41.8382 65.8057Z" fill="url(#paint20_linear_16_1972)"/>
<path d="M41.8382 65.3398L41.8382 69.4822C41.8382 69.7681 41.6064 70 41.3204 70C41.0344 70 40.8026 69.7681 40.8026 69.4822L40.8026 65.3398L41.8382 65.3398Z" fill="url(#paint21_linear_16_1972)"/>
<path d="M41.7443 64.9069L45.0396 67.8727C45.2418 68.0546 45.2418 68.3497 45.0396 68.5317C44.8374 68.7137 44.5095 68.7137 44.3073 68.5317L41.012 65.566L41.7443 64.9069Z" fill="url(#paint22_linear_16_1972)"/>
<path d="M41.012 64.9069L44.3073 61.9412C44.5095 61.7592 44.8373 61.7592 45.0396 61.9412C45.2418 62.1232 45.2418 62.4183 45.0396 62.6002L41.7443 65.566L41.012 64.9069Z" fill="url(#paint23_linear_16_1972)"/>
<path d="M41.012 65.5659L37.7168 62.6001C37.5146 62.4181 37.5146 62.1231 37.7168 61.9411C37.919 61.7591 38.2468 61.7591 38.449 61.9411L41.7443 64.9068L41.012 65.5659Z" fill="url(#paint24_linear_16_1972)"/>
<path d="M41.7443 65.5659L38.4491 68.5316C38.2469 68.7136 37.919 68.7136 37.7168 68.5316C37.5146 68.3496 37.5146 68.0545 37.7168 67.8725L41.012 64.9068L41.7443 65.5659Z" fill="url(#paint25_linear_16_1972)"/>
<defs>
<filter id="filter0_d_16_1972" x="1.59827" y="0.922546" width="52.6407" height="55.5142" filterUnits="userSpaceOnUse" color-interpolation-filters="sRGB">
<feFlood flood-opacity="0" result="BackgroundImageFix"/>
<feColorMatrix in="SourceAlpha" type="matrix" values="0 0 0 0 0 0 0 0 0 0 0 0 0 0 0 0 0 0 127 0" result="hardAlpha"/>
<feOffset dx="4" dy="4"/>
<feGaussianBlur stdDeviation="5"/>
<feComposite in2="hardAlpha" operator="out"/>
<feColorMatrix type="matrix" values="0 0 0 0 0 0 0 0 0 0.273083 0 0 0 0 0.470833 0 0 0 0.44 0"/>
<feBlend mode="normal" in2="BackgroundImageFix" result="effect1_dropShadow_16_1972"/>
<feBlend mode="normal" in="SourceGraphic" in2="effect1_dropShadow_16_1972" result="shape"/>
</filter>
<filter id="filter1_bd_16_1972" x="1.80585" y="5.32037" width="81.165" height="64.3884" filterUnits="userSpaceOnUse" color-interpolation-filters="sRGB">
<feFlood flood-opacity="0" result="BackgroundImageFix"/>
<feGaussianBlur in="BackgroundImage" stdDeviation="5"/>
<feComposite in2="SourceAlpha" operator="in" result="effect1_backgroundBlur_16_1972"/>
<feColorMatrix in="SourceAlpha" type="matrix" values="0 0 0 0 0 0 0 0 0 0 0 0 0 0 0 0 0 0 127 0" result="hardAlpha"/>
<feOffset dx="4" dy="4"/>
<feGaussianBlur stdDeviation="5"/>
<feComposite in2="hardAlpha" operator="out"/>
<feColorMatrix type="matrix" values="0 0 0 0 0 0 0 0 0 0.273083 0 0 0 0 0.470833 0 0 0 0.2 0"/>
<feBlend mode="normal" in2="effect1_backgroundBlur_16_1972" result="effect2_dropShadow_16_1972"/>
<feBlend mode="normal" in="SourceGraphic" in2="effect2_dropShadow_16_1972" result="shape"/>
</filter>
<linearGradient id="paint0_linear_16_1972" x1="26.7184" y1="25.5728" x2="14.6019" y2="37.6893" gradientUnits="userSpaceOnUse">
<stop stop-color="#FFF48D"/>
<stop offset="1" stop-color="#FF9D2A"/>
</linearGradient>
<radialGradient id="paint1_radial_16_1972" cx="0" cy="0" r="1" gradientUnits="userSpaceOnUse" gradientTransform="translate(40.3884 39.5534) rotate(132.044) scale(46.855 66.3178)">
<stop stop-color="white" stop-opacity="0.47"/>
<stop offset="1" stop-color="white" stop-opacity="0.91"/>
</radialGradient>
<linearGradient id="paint2_linear_16_1972" x1="35.0034" y1="53.2233" x2="33.3586" y2="55.9646" gradientUnits="userSpaceOnUse">
<stop stop-color="#3F81E4"/>
<stop offset="1" stop-color="#0044C9"/>
</linearGradient>
<linearGradient id="paint3_linear_16_1972" x1="30.3432" y1="50.4272" x2="33.0179" y2="52.4085" gradientUnits="userSpaceOnUse">
<stop stop-color="#3F81E4"/>
<stop offset="1" stop-color="#0044C9"/>
</linearGradient>
<linearGradient id="paint4_linear_16_1972" x1="27.754" y1="55.0873" x2="29.3988" y2="52.346" gradientUnits="userSpaceOnUse">
<stop stop-color="#3F81E4"/>
<stop offset="1" stop-color="#0044C9"/>
</linearGradient>
<linearGradient id="paint5_linear_16_1972" x1="32.4142" y1="57.8835" x2="29.7395" y2="55.9022" gradientUnits="userSpaceOnUse">
<stop stop-color="#3F81E4"/>
<stop offset="1" stop-color="#0044C9"/>
</linearGradient>
<linearGradient id="paint6_linear_16_1972" x1="35.0978" y1="56.0291" x2="31.7483" y2="56.7734" gradientUnits="userSpaceOnUse">
<stop stop-color="#3F81E4"/>
<stop offset="1" stop-color="#0044C9"/>
</linearGradient>
<linearGradient id="paint7_linear_16_1972" x1="33.6332" y1="50.7567" x2="34.1848" y2="53.8208" gradientUnits="userSpaceOnUse">
<stop stop-color="#3F81E4"/>
<stop offset="1" stop-color="#0044C9"/>
</linearGradient>
<linearGradient id="paint8_linear_16_1972" x1="27.775" y1="52.0747" x2="31.1245" y2="51.3303" gradientUnits="userSpaceOnUse">
<stop stop-color="#3F81E4"/>
<stop offset="1" stop-color="#0044C9"/>
</linearGradient>
<linearGradient id="paint9_linear_16_1972" x1="29.2396" y1="57.3471" x2="28.688" y2="54.2829" gradientUnits="userSpaceOnUse">
<stop stop-color="#3F81E4"/>
<stop offset="1" stop-color="#0044C9"/>
</linearGradient>
<linearGradient id="paint10_linear_16_1972" x1="51.1585" y1="49.4952" x2="49.5137" y2="52.2365" gradientUnits="userSpaceOnUse">
<stop stop-color="#3F81E4"/>
<stop offset="1" stop-color="#0044C9"/>
</linearGradient>
<linearGradient id="paint11_linear_16_1972" x1="46.4983" y1="46.699" x2="49.1731" y2="48.6803" gradientUnits="userSpaceOnUse">
<stop stop-color="#3F81E4"/>
<stop offset="1" stop-color="#0044C9"/>
</linearGradient>
<linearGradient id="paint12_linear_16_1972" x1="43.9092" y1="51.3591" x2="45.554" y2="48.6178" gradientUnits="userSpaceOnUse">
<stop stop-color="#3F81E4"/>
<stop offset="1" stop-color="#0044C9"/>
</linearGradient>
<linearGradient id="paint13_linear_16_1972" x1="48.5694" y1="54.1553" x2="45.8947" y2="52.174" gradientUnits="userSpaceOnUse">
<stop stop-color="#3F81E4"/>
<stop offset="1" stop-color="#0044C9"/>
</linearGradient>
<linearGradient id="paint14_linear_16_1972" x1="51.253" y1="52.3009" x2="47.9035" y2="53.0452" gradientUnits="userSpaceOnUse">
<stop stop-color="#3F81E4"/>
<stop offset="1" stop-color="#0044C9"/>
</linearGradient>
<linearGradient id="paint15_linear_16_1972" x1="49.7884" y1="47.0285" x2="50.34" y2="50.0926" gradientUnits="userSpaceOnUse">
<stop stop-color="#3F81E4"/>
<stop offset="1" stop-color="#0044C9"/>
</linearGradient>
<linearGradient id="paint16_linear_16_1972" x1="43.9302" y1="48.3466" x2="47.2797" y2="47.6022" gradientUnits="userSpaceOnUse">
<stop stop-color="#3F81E4"/>
<stop offset="1" stop-color="#0044C9"/>
</linearGradient>
<linearGradient id="paint17_linear_16_1972" x1="45.3948" y1="53.619" x2="44.8432" y2="50.5548" gradientUnits="userSpaceOnUse">
<stop stop-color="#3F81E4"/>
<stop offset="1" stop-color="#0044C9"/>
</linearGradient>
<linearGradient id="paint18_linear_16_1972" x1="44.9451" y1="64.4077" x2="43.3003" y2="67.149" gradientUnits="userSpaceOnUse">
<stop stop-color="#3F81E4"/>
<stop offset="1" stop-color="#0044C9"/>
</linearGradient>
<linearGradient id="paint19_linear_16_1972" x1="40.2849" y1="61.6116" x2="42.9596" y2="63.5929" gradientUnits="userSpaceOnUse">
<stop stop-color="#3F81E4"/>
<stop offset="1" stop-color="#0044C9"/>
</linearGradient>
<linearGradient id="paint20_linear_16_1972" x1="37.6958" y1="66.2717" x2="39.3406" y2="63.5305" gradientUnits="userSpaceOnUse">
<stop stop-color="#3F81E4"/>
<stop offset="1" stop-color="#0044C9"/>
</linearGradient>
<linearGradient id="paint21_linear_16_1972" x1="42.356" y1="69.0679" x2="39.6812" y2="67.0866" gradientUnits="userSpaceOnUse">
<stop stop-color="#3F81E4"/>
<stop offset="1" stop-color="#0044C9"/>
</linearGradient>
<linearGradient id="paint22_linear_16_1972" x1="45.0396" y1="67.2136" x2="41.69" y2="67.9579" gradientUnits="userSpaceOnUse">
<stop stop-color="#3F81E4"/>
<stop offset="1" stop-color="#0044C9"/>
</linearGradient>
<linearGradient id="paint23_linear_16_1972" x1="43.575" y1="61.9412" x2="44.1265" y2="65.0054" gradientUnits="userSpaceOnUse">
<stop stop-color="#3F81E4"/>
<stop offset="1" stop-color="#0044C9"/>
</linearGradient>
<linearGradient id="paint24_linear_16_1972" x1="37.7168" y1="63.2592" x2="41.0663" y2="62.5148" gradientUnits="userSpaceOnUse">
<stop stop-color="#3F81E4"/>
<stop offset="1" stop-color="#0044C9"/>
</linearGradient>
<linearGradient id="paint25_linear_16_1972" x1="39.1813" y1="68.5316" x2="38.6298" y2="65.4674" gradientUnits="userSpaceOnUse">
<stop stop-color="#3F81E4"/>
<stop offset="1" stop-color="#0044C9"/>
</linearGradient>
</defs>
</svg>
