<svg width="109" height="42" viewBox="0 0 109 42" fill="none" xmlns="http://www.w3.org/2000/svg">
<path d="M34.4566 15.4762C35.0196 11.6477 33.7392 7.5523 31.4163 4.89153C29.0934 2.23076 25.3553 0.5 22.0703 0.5C18.7852 0.5 14.8219 2.23076 12.499 4.89153C10.1761 7.5523 8.89567 11.4225 9.68389 15.4762L22.0703 15.4762H34.4566Z" fill="#A8B1FF"/>
<rect x="7.88223" y="15.251" width="30.6281" height="2.02686" rx="1.01343" fill="#A8B1FF"/>
<rect x="13.062" y="23.5837" width="20.719" height="2.02686" rx="1.01343" fill="#A8B1FF"/>
<rect x="11.0351" y="19.3047" width="17.1157" height="2.25207" rx="1.12603" fill="#A8B1FF"/>
<rect x="29.2769" y="19.3047" width="4.95455" height="2.25207" rx="1.12603" fill="#A8B1FF"/>
<path d="M13.5014 17.2259C12.3562 17.0074 12.522 15.3194 13.6879 15.3279L26.2735 15.4198C27.4519 15.4284 27.5775 17.1442 26.4128 17.3242V17.3242C25.3273 17.492 25.3323 19.0575 26.4189 19.2184L26.9304 19.2941C28.1947 19.4812 28.0655 21.3442 26.7876 21.3551L13.0856 21.472C11.7551 21.4834 11.5242 19.5758 12.819 19.2694L13.5424 19.0982C14.5474 18.8604 14.5158 17.4195 13.5014 17.2259V17.2259Z" fill="#A8B1FF"/>
<path d="M19.4281 21.4919C18.4177 21.0966 18.7127 19.5943 19.7977 19.6105L25.4447 19.6951C26.5588 19.7117 26.7889 21.277 25.7267 21.6136V21.6136C24.8067 21.9051 24.8147 23.2097 25.7381 23.4899L25.8537 23.525C26.9759 23.8655 26.7303 25.5205 25.5576 25.5205H19.633C18.4428 25.5205 18.0998 23.8936 19.1887 23.4131L19.4665 23.2905C20.2592 22.9406 20.2351 21.8076 19.4281 21.4919V21.4919Z" fill="#A8B1FF"/>
<rect x="35.5826" y="19.3047" width="4.50413" height="2.25207" rx="1.12603" fill="#A8B1FF"/>
<path d="M10.973 33.2552C10.973 34.4448 10.7475 35.4569 10.2965 36.2914C9.84908 37.1259 9.23828 37.7633 8.46413 38.2037C7.69354 38.6405 6.82706 38.8589 5.8647 38.8589C4.89524 38.8589 4.02521 38.6387 3.25462 38.1984C2.48402 37.758 1.875 37.1206 1.42756 36.2861C0.980114 35.4515 0.756392 34.4413 0.756392 33.2552C0.756392 32.0655 0.980114 31.0535 1.42756 30.2189C1.875 29.3844 2.48402 28.7488 3.25462 28.312C4.02521 27.8716 4.89524 27.6515 5.8647 27.6515C6.82706 27.6515 7.69354 27.8716 8.46413 28.312C9.23828 28.7488 9.84908 29.3844 10.2965 30.2189C10.7475 31.0535 10.973 32.0655 10.973 33.2552ZM8.63459 33.2552C8.63459 32.4846 8.51918 31.8347 8.28835 31.3056C8.06108 30.7765 7.7397 30.3752 7.32422 30.1018C6.90874 29.8283 6.42223 29.6916 5.8647 29.6916C5.30717 29.6916 4.82067 29.8283 4.40518 30.1018C3.9897 30.3752 3.66655 30.7765 3.43572 31.3056C3.20845 31.8347 3.09482 32.4846 3.09482 33.2552C3.09482 34.0258 3.20845 34.6756 3.43572 35.2047C3.66655 35.7339 3.9897 36.1351 4.40518 36.4086C4.82067 36.682 5.30717 36.8187 5.8647 36.8187C6.42223 36.8187 6.90874 36.682 7.32422 36.4086C7.7397 36.1351 8.06108 35.7339 8.28835 35.2047C8.51918 34.6756 8.63459 34.0258 8.63459 33.2552ZM12.6389 41.7779V30.5279H14.8762V31.9022H14.9774C15.0768 31.682 15.2206 31.4583 15.4088 31.231C15.6006 31.0002 15.8492 30.8084 16.1546 30.6557C16.4635 30.4995 16.847 30.4214 17.3051 30.4214C17.9017 30.4214 18.4521 30.5776 18.9564 30.8901C19.4607 31.1991 19.8637 31.666 20.1656 32.291C20.4674 32.9125 20.6183 33.692 20.6183 34.6295C20.6183 35.5421 20.471 36.3127 20.1762 36.9413C19.885 37.5663 19.4873 38.0403 18.983 38.3635C18.4823 38.6831 17.9213 38.8429 17.2998 38.8429C16.8595 38.8429 16.4848 38.7701 16.1759 38.6245C15.8705 38.4789 15.6201 38.296 15.4248 38.0758C15.2295 37.8521 15.0803 37.6266 14.9774 37.3993H14.9081V41.7779H12.6389ZM14.8602 34.6188C14.8602 35.1053 14.9276 35.5297 15.0626 35.8919C15.1975 36.2541 15.3928 36.5364 15.6485 36.7388C15.9042 36.9377 16.2149 37.0371 16.5807 37.0371C16.95 37.0371 17.2625 36.9359 17.5182 36.7335C17.7739 36.5275 17.9674 36.2435 18.0988 35.8812C18.2338 35.5155 18.3012 35.0947 18.3012 34.6188C18.3012 34.1465 18.2355 33.731 18.1041 33.3724C17.9727 33.0137 17.7792 32.7332 17.5235 32.5307C17.2678 32.3283 16.9536 32.2271 16.5807 32.2271C16.2114 32.2271 15.8989 32.3248 15.6432 32.5201C15.3911 32.7154 15.1975 32.9924 15.0626 33.3511C14.9276 33.7097 14.8602 34.1323 14.8602 34.6188ZM25.8598 38.8695C25.0182 38.8695 24.2938 38.6991 23.6865 38.3582C23.0828 38.0137 22.6176 37.5272 22.2909 36.8986C21.9642 36.2665 21.8009 35.519 21.8009 34.6561C21.8009 33.8145 21.9642 33.0758 22.2909 32.4402C22.6176 31.8045 23.0775 31.3091 23.6705 30.954C24.2671 30.5989 24.9667 30.4214 25.7693 30.4214C26.309 30.4214 26.8115 30.5084 27.2767 30.6824C27.7455 30.8528 28.1539 31.1103 28.5019 31.4547C28.8534 31.7992 29.1269 32.2324 29.3222 32.7545C29.5175 33.2729 29.6151 33.8802 29.6151 34.5762V35.1994H22.7064V33.7932H27.4791C27.4791 33.4665 27.4081 33.177 27.2661 32.9249C27.124 32.6728 26.9269 32.4757 26.6748 32.3337C26.4262 32.1881 26.1368 32.1153 25.8066 32.1153C25.4621 32.1153 25.1567 32.1952 24.8904 32.355C24.6276 32.5112 24.4216 32.7225 24.2725 32.9888C24.1233 33.2516 24.047 33.5446 24.0434 33.8677V35.2047C24.0434 35.6096 24.118 35.9594 24.2671 36.2541C24.4198 36.5489 24.6347 36.7761 24.9117 36.9359C25.1887 37.0957 25.5171 37.1756 25.8971 37.1756C26.1492 37.1756 26.3801 37.1401 26.5896 37.0691C26.7991 36.9981 26.9784 36.8915 27.1276 36.7495C27.2767 36.6074 27.3904 36.4334 27.4685 36.2275L29.5672 36.366C29.4607 36.8702 29.2423 37.3106 28.912 37.687C28.5853 38.0599 28.1627 38.3511 27.6443 38.5606C27.1294 38.7665 26.5345 38.8695 25.8598 38.8695ZM33.3651 33.9796V38.7097H31.096V30.5279H33.2586V31.9714H33.3545C33.5356 31.4956 33.8392 31.1192 34.2654 30.8422C34.6915 30.5616 35.2082 30.4214 35.8154 30.4214C36.3836 30.4214 36.879 30.5457 37.3016 30.7942C37.7242 31.0428 38.0526 31.3979 38.287 31.8596C38.5214 32.3177 38.6386 32.8645 38.6386 33.5002V38.7097H36.3694V33.905C36.373 33.4043 36.2451 33.0137 35.9859 32.7332C35.7267 32.4491 35.3698 32.307 34.9152 32.307C34.6098 32.307 34.3399 32.3727 34.1056 32.5041C33.8747 32.6355 33.6936 32.8273 33.5622 33.0794C33.4344 33.328 33.3687 33.628 33.3651 33.9796ZM42.1635 38.7097L39.0421 27.8006H41.5616L43.3674 35.3805H43.4579L45.4501 27.8006H47.6074L49.5943 35.3965H49.6902L51.4959 27.8006H54.0154L50.894 38.7097H48.6461L46.5687 31.5773H46.4835L44.4114 38.7097H42.1635ZM58.0571 38.8695C57.2155 38.8695 56.491 38.6991 55.8838 38.3582C55.2801 38.0137 54.8149 37.5272 54.4882 36.8986C54.1615 36.2665 53.9981 35.519 53.9981 34.6561C53.9981 33.8145 54.1615 33.0758 54.4882 32.4402C54.8149 31.8045 55.2748 31.3091 55.8678 30.954C56.4644 30.5989 57.164 30.4214 57.9665 30.4214C58.5063 30.4214 59.0088 30.5084 59.474 30.6824C59.9427 30.8528 60.3511 31.1103 60.6991 31.4547C61.0507 31.7992 61.3241 32.2324 61.5194 32.7545C61.7148 33.2729 61.8124 33.8802 61.8124 34.5762V35.1994H54.9037V33.7932H59.6764C59.6764 33.4665 59.6054 33.177 59.4633 32.9249C59.3213 32.6728 59.1242 32.4757 58.8721 32.3337C58.6235 32.1881 58.3341 32.1153 58.0038 32.1153C57.6594 32.1153 57.354 32.1952 57.0876 32.355C56.8248 32.5112 56.6189 32.7225 56.4697 32.9888C56.3206 33.2516 56.2442 33.5446 56.2407 33.8677V35.2047C56.2407 35.6096 56.3153 35.9594 56.4644 36.2541C56.6171 36.5489 56.8319 36.7761 57.1089 36.9359C57.3859 37.0957 57.7144 37.1756 58.0944 37.1756C58.3465 37.1756 58.5773 37.1401 58.7868 37.0691C58.9964 36.9981 59.1757 36.8915 59.3248 36.7495C59.474 36.6074 59.5876 36.4334 59.6657 36.2275L61.7645 36.366C61.6579 36.8702 61.4395 37.3106 61.1093 37.687C60.7826 38.0599 60.36 38.3511 59.8415 38.5606C59.3266 38.7665 58.7318 38.8695 58.0571 38.8695ZM65.6263 38.8642C65.1043 38.8642 64.6391 38.7736 64.2307 38.5925C63.8224 38.4079 63.4992 38.1362 63.2613 37.7775C63.0269 37.4153 62.9097 36.9643 62.9097 36.4246C62.9097 35.97 62.9932 35.5883 63.1601 35.2793C63.327 34.9704 63.5542 34.7218 63.8419 34.5336C64.1295 34.3454 64.4562 34.2033 64.822 34.1074C65.1913 34.0116 65.5784 33.9441 65.9832 33.905C66.4591 33.8553 66.8426 33.8091 67.1338 33.7665C67.425 33.7204 67.6363 33.6529 67.7677 33.5641C67.8991 33.4753 67.9648 33.3439 67.9648 33.1699V33.138C67.9648 32.8006 67.8582 32.5396 67.6452 32.355C67.4356 32.1703 67.1373 32.078 66.7503 32.078C66.3419 32.078 66.017 32.1685 65.7755 32.3496C65.534 32.5272 65.3742 32.7509 65.2961 33.0208L63.1974 32.8503C63.3039 32.3532 63.5134 31.9235 63.8259 31.5613C64.1384 31.1955 64.5415 30.915 65.0351 30.7197C65.5322 30.5208 66.1075 30.4214 66.7609 30.4214C67.2155 30.4214 67.6505 30.4746 68.066 30.5812C68.485 30.6877 68.8561 30.8528 69.1792 31.0765C69.5059 31.3003 69.7634 31.5879 69.9516 31.9395C70.1398 32.2875 70.2339 32.7047 70.2339 33.1913V38.7097H68.0819V37.5751H68.018C67.8866 37.8308 67.7108 38.0563 67.4907 38.2516C67.2705 38.4434 67.0059 38.5943 66.697 38.7044C66.3881 38.8109 66.0312 38.8642 65.6263 38.8642ZM66.2762 37.2981C66.61 37.2981 66.9047 37.2324 67.1604 37.1011C67.4161 36.9661 67.6167 36.785 67.7623 36.5577C67.9079 36.3305 67.9807 36.073 67.9807 35.7854V34.9171C67.9097 34.9633 67.8121 35.0059 67.6878 35.0449C67.567 35.0805 67.4303 35.1142 67.2776 35.1462C67.1249 35.1746 66.9722 35.2012 66.8195 35.2261C66.6668 35.2474 66.5283 35.2669 66.404 35.2846C66.1377 35.3237 65.9051 35.3859 65.7062 35.4711C65.5074 35.5563 65.3529 35.6717 65.2428 35.8173C65.1327 35.9594 65.0777 36.1369 65.0777 36.35C65.0777 36.6589 65.1895 36.8951 65.4133 37.0584C65.6405 37.2182 65.9282 37.2981 66.2762 37.2981ZM76.3463 30.5279V32.2324H71.4191V30.5279H76.3463ZM72.5377 28.5677H74.8069V36.1955C74.8069 36.405 74.8389 36.5684 74.9028 36.6856C74.9667 36.7992 75.0555 36.8791 75.1691 36.9253C75.2863 36.9714 75.4213 36.9945 75.574 36.9945C75.6805 36.9945 75.787 36.9856 75.8936 36.9679C76.0001 36.9466 76.0818 36.9306 76.1386 36.9199L76.4955 38.6085C76.3818 38.644 76.222 38.6849 76.0161 38.731C75.8101 38.7807 75.5597 38.8109 75.265 38.8216C74.7181 38.8429 74.2387 38.7701 73.8268 38.6032C73.4184 38.4363 73.1006 38.177 72.8733 37.8255C72.646 37.4739 72.5342 37.03 72.5377 36.4938V28.5677ZM80.2694 33.9796V38.7097H78.0003V27.8006H80.2055V31.9714H80.3014C80.4861 31.4885 80.7844 31.1103 81.1963 30.8368C81.6082 30.5599 82.1249 30.4214 82.7464 30.4214C83.3145 30.4214 83.8099 30.5457 84.2325 30.7942C84.6586 31.0393 84.9889 31.3926 85.2233 31.8542C85.4612 32.3123 85.5784 32.861 85.5748 33.5002V38.7097H83.3057V33.905C83.3092 33.4008 83.1814 33.0084 82.9221 32.7278C82.6665 32.4473 82.3078 32.307 81.8461 32.307C81.5372 32.307 81.2638 32.3727 81.0258 32.5041C80.7915 32.6355 80.6068 32.8273 80.4719 33.0794C80.3405 33.328 80.273 33.628 80.2694 33.9796ZM91.0893 38.8695C90.2477 38.8695 89.5233 38.6991 88.916 38.3582C88.3123 38.0137 87.8471 37.5272 87.5204 36.8986C87.1937 36.2665 87.0304 35.519 87.0304 34.6561C87.0304 33.8145 87.1937 33.0758 87.5204 32.4402C87.8471 31.8045 88.307 31.3091 88.9 30.954C89.4966 30.5989 90.1962 30.4214 90.9988 30.4214C91.5385 30.4214 92.041 30.5084 92.5062 30.6824C92.975 30.8528 93.3833 31.1103 93.7314 31.4547C94.0829 31.7992 94.3564 32.2324 94.5517 32.7545C94.747 33.2729 94.8446 33.8802 94.8446 34.5762V35.1994H87.9359V33.7932H92.7086C92.7086 33.4665 92.6376 33.177 92.4956 32.9249C92.3535 32.6728 92.1564 32.4757 91.9043 32.3337C91.6557 32.1881 91.3663 32.1153 91.036 32.1153C90.6916 32.1153 90.3862 32.1952 90.1199 32.355C89.8571 32.5112 89.6511 32.7225 89.502 32.9888C89.3528 33.2516 89.2765 33.5446 89.2729 33.8677V35.2047C89.2729 35.6096 89.3475 35.9594 89.4966 36.2541C89.6493 36.5489 89.8642 36.7761 90.1412 36.9359C90.4181 37.0957 90.7466 37.1756 91.1266 37.1756C91.3787 37.1756 91.6096 37.1401 91.8191 37.0691C92.0286 36.9981 92.2079 36.8915 92.3571 36.7495C92.5062 36.6074 92.6199 36.4334 92.698 36.2275L94.7967 36.366C94.6902 36.8702 94.4718 37.3106 94.1415 37.687C93.8148 38.0599 93.3922 38.3511 92.8738 38.5606C92.3588 38.7665 91.764 38.8695 91.0893 38.8695ZM96.3255 38.7097V30.5279H98.5254V31.9555H98.6106C98.7598 31.4476 99.0101 31.0641 99.3617 30.8049C99.7132 30.5421 100.118 30.4107 100.576 30.4107C100.69 30.4107 100.812 30.4178 100.944 30.432C101.075 30.4462 101.191 30.4658 101.29 30.4906V32.5041C101.183 32.4721 101.036 32.4437 100.848 32.4189C100.66 32.394 100.487 32.3816 100.331 32.3816C99.9973 32.3816 99.699 32.4544 99.4363 32.6C99.177 32.742 98.9711 32.9409 98.8184 33.1966C98.6692 33.4523 98.5946 33.747 98.5946 34.0808V38.7097H96.3255Z" fill="white"/>
</svg>
