<svg width="26" height="21" viewBox="0 0 26 21" fill="none" xmlns="http://www.w3.org/2000/svg">
<circle cx="7.78125" cy="7.11859" r="7.11859" fill="url(#paint0_linear_115_539)"/>
<g filter="url(#filter0_b_115_539)">
<path fill-rule="evenodd" clip-rule="evenodd" d="M20.088 20.0286L8.1432 20.0286V20.0269C8.10312 20.028 8.0629 20.0286 8.02254 20.0286C5.69031 20.0286 3.79965 18.1379 3.79965 15.8057C3.79965 13.5004 5.64679 11.6266 7.94174 11.5835C7.91541 11.3456 7.90189 11.1038 7.90189 10.8589C7.90189 7.26056 10.8189 4.34355 14.4172 4.34355C17.0728 4.34355 19.3573 5.93232 20.3721 8.21118C23.5053 8.35943 26 10.9466 26 14.1165C26 17.3413 23.418 19.9631 20.2086 20.0274V20.0286L20.088 20.0286Z" fill="url(#paint1_radial_115_539)"/>
</g>
<defs>
<filter id="filter0_b_115_539" x="-6.20035" y="-5.65643" width="42.2003" height="35.685" filterUnits="userSpaceOnUse" color-interpolation-filters="sRGB">
<feFlood flood-opacity="0" result="BackgroundImageFix"/>
<feGaussianBlur in="BackgroundImage" stdDeviation="5"/>
<feComposite in2="SourceAlpha" operator="in" result="effect1_backgroundBlur_115_539"/>
<feBlend mode="normal" in="SourceGraphic" in2="effect1_backgroundBlur_115_539" result="shape"/>
</filter>
<linearGradient id="paint0_linear_115_539" x1="13.3313" y1="2.8957" x2="3.55836" y2="12.1861" gradientUnits="userSpaceOnUse">
<stop stop-color="#FFF48D"/>
<stop offset="1" stop-color="#FF9D2A"/>
</linearGradient>
<radialGradient id="paint1_radial_115_539" cx="0" cy="0" r="1" gradientUnits="userSpaceOnUse" gradientTransform="translate(14.8998 13.7546) rotate(132.044) scale(18.1964 25.7549)">
<stop stop-color="white" stop-opacity="0.47"/>
<stop offset="1" stop-color="white" stop-opacity="0.91"/>
</radialGradient>
</defs>
</svg>
