<svg width="54" height="44" viewBox="0 0 54 44" fill="none" xmlns="http://www.w3.org/2000/svg">
<g filter="url(#filter0_d_107_497)">
<g filter="url(#filter1_b_107_497)">
<path d="M6 12.1552C6 11.3458 6.65613 10.6897 7.46552 10.6897H26.5283H27.3693C27.4908 10.6897 27.6102 10.658 27.7158 10.5977V10.5977C27.9335 10.4733 28.0679 10.2418 28.0679 9.991V9.9569V9.75373C28.0679 9.41233 27.944 9.08254 27.7191 8.82568V8.82568C27.4516 8.5201 27.0652 8.34483 26.659 8.34483H26.622C26.4748 8.34483 26.3284 8.36663 26.1877 8.40951L25.5556 8.60202C24.9648 8.78197 24.3424 8.43707 24.1818 7.84074V7.84074C24.0525 7.36071 24.2634 6.85388 24.6951 6.60733L25.047 6.40634C25.1785 6.33122 25.32 6.27494 25.4671 6.23916L25.848 6.14655L26.4363 6.05056C26.6425 6.01691 26.8511 6 27.0601 6H27.253C27.5965 6 27.9371 6.06266 28.2582 6.18489V6.18489C28.4471 6.25682 28.6278 6.34883 28.797 6.45933L28.8503 6.49408C29.2397 6.74822 29.5744 7.08125 29.8314 7.46876V7.46876C30.0225 7.75703 30.1701 8.07404 30.267 8.40607L30.3412 8.6598C30.4789 9.13133 30.5488 9.62005 30.5488 10.1113V10.25V10.563C30.5488 10.7447 30.5313 10.926 30.4965 11.1044V11.1044C30.418 11.507 30.2529 11.8877 30.0126 12.2202L29.9537 12.3017L29.8176 12.4961C29.5702 12.8492 29.2374 13.1339 28.8501 13.3235V13.3235C28.6459 13.4235 28.4292 13.4957 28.2058 13.5382L28.0901 13.5602C27.8789 13.6005 27.6643 13.6207 27.4493 13.6207H26.5283H7.46552C6.65613 13.6207 6 12.9646 6 12.1552V12.1552Z" fill="url(#paint0_radial_107_497)"/>
</g>
<g filter="url(#filter2_b_107_497)">
<path d="M10.7472 23.4397C10.7472 24.2491 11.4033 24.9052 12.2127 24.9052H31.3467H32.1914C32.3128 24.9052 32.4322 24.9368 32.5378 24.9969V24.9969C32.7566 25.1214 32.8917 25.3538 32.8917 25.6055V25.638V25.8389C32.8917 26.1817 32.7669 26.5127 32.5407 26.7702V26.7702C32.2728 27.0752 31.8865 27.25 31.4806 27.25H31.4406C31.293 27.25 31.1462 27.2282 31.005 27.1854L30.3655 26.9913C29.7752 26.8121 29.1536 27.1565 28.9926 27.7521V27.7521C28.8626 28.2331 29.0742 28.7411 29.5072 28.9875L29.8611 29.189C29.9926 29.2638 30.1338 29.3198 30.2808 29.3554L30.6641 29.4483L31.2544 29.5443C31.4614 29.5779 31.6707 29.5948 31.8803 29.5948H32.0744C32.4188 29.5948 32.7603 29.5322 33.0824 29.41V29.41C33.2721 29.3381 33.4536 29.2459 33.6237 29.1353L33.6764 29.101C34.0674 28.8467 34.403 28.5142 34.6614 28.1259V28.1259C34.8534 27.8373 35.0013 27.5204 35.0988 27.1877L35.1727 26.9354C35.311 26.4637 35.3812 25.9746 35.3812 25.4829V25.3448V25.0321C35.3812 24.8502 35.3636 24.6688 35.3287 24.4903V24.4903C35.2499 24.0878 35.0844 23.7073 34.8436 23.3754L34.784 23.2931L34.6483 23.1001C34.3995 22.7461 34.065 22.4609 33.6761 22.2711V22.2711C33.4715 22.1713 33.2544 22.0992 33.0307 22.0568L32.9138 22.0346C32.702 21.9944 32.4868 21.9742 32.2711 21.9742H31.3467H12.2127C11.4033 21.9742 10.7472 22.6303 10.7472 23.4397V23.4397Z" fill="url(#paint1_radial_107_497)"/>
</g>
<g filter="url(#filter3_b_107_497)">
<path d="M7.41132 17.8708C7.41132 17.0614 8.06745 16.4052 8.87683 16.4052H35.9496H36.7985C36.9199 16.4052 37.0392 16.3738 37.1448 16.3139V16.3139C37.3648 16.1892 37.5007 15.9559 37.5007 15.703V15.6725V15.4741C37.5007 15.1297 37.375 14.7972 37.1473 14.539V14.539C36.8789 14.2347 36.4928 14.0604 36.0871 14.0604H36.0436C35.8956 14.0604 35.7484 14.0822 35.6067 14.125L34.9587 14.3209C34.3688 14.4993 33.7482 14.1553 33.5868 13.5606V13.5606C33.456 13.0786 33.6684 12.5692 34.1029 12.3228L34.4591 12.1209C34.5904 12.0465 34.7315 11.9907 34.8783 11.9553L35.2643 11.8621L35.857 11.7661C36.0647 11.7325 36.2748 11.7156 36.4853 11.7156H36.6806C37.0261 11.7156 37.3687 11.7782 37.6919 11.9003V11.9003C37.8825 11.9723 38.0649 12.0646 38.236 12.1754L38.2882 12.2092C38.6809 12.4637 39.0175 12.7956 39.2775 13.1846V13.1846C39.4706 13.4737 39.6187 13.7904 39.7168 14.1239L39.7906 14.3745C39.9295 14.8466 40 15.3361 40 15.8282V15.9656V16.2781C40 16.4601 39.9823 16.6417 39.9473 16.8203V16.8203C39.8682 17.2226 39.7023 17.6028 39.4609 17.9343L39.4005 18.0173L39.2653 18.2089C39.0148 18.5639 38.6785 18.8497 38.2877 19.0396V19.0396C38.0826 19.1392 37.8651 19.2112 37.6411 19.2535L37.5228 19.2759C37.3102 19.316 37.0942 19.3363 36.8778 19.3363H35.9496H8.87683C8.06745 19.3363 7.41132 18.6801 7.41132 17.8708V17.8708Z" fill="url(#paint2_radial_107_497)"/>
</g>
</g>
<defs>
<filter id="filter0_d_107_497" x="0" y="0" width="54" height="43.5948" filterUnits="userSpaceOnUse" color-interpolation-filters="sRGB">
<feFlood flood-opacity="0" result="BackgroundImageFix"/>
<feColorMatrix in="SourceAlpha" type="matrix" values="0 0 0 0 0 0 0 0 0 0 0 0 0 0 0 0 0 0 127 0" result="hardAlpha"/>
<feOffset dx="4" dy="4"/>
<feGaussianBlur stdDeviation="5"/>
<feComposite in2="hardAlpha" operator="out"/>
<feColorMatrix type="matrix" values="0 0 0 0 0 0 0 0 0 0.273083 0 0 0 0 0.470833 0 0 0 0.2 0"/>
<feBlend mode="normal" in2="BackgroundImageFix" result="effect1_dropShadow_107_497"/>
<feBlend mode="normal" in="SourceGraphic" in2="effect1_dropShadow_107_497" result="shape"/>
</filter>
<filter id="filter1_b_107_497" x="0" y="0" width="36.5488" height="19.6207" filterUnits="userSpaceOnUse" color-interpolation-filters="sRGB">
<feFlood flood-opacity="0" result="BackgroundImageFix"/>
<feGaussianBlur in="BackgroundImage" stdDeviation="3"/>
<feComposite in2="SourceAlpha" operator="in" result="effect1_backgroundBlur_107_497"/>
<feBlend mode="normal" in="SourceGraphic" in2="effect1_backgroundBlur_107_497" result="shape"/>
</filter>
<filter id="filter2_b_107_497" x="4.74719" y="15.9742" width="36.634" height="19.6207" filterUnits="userSpaceOnUse" color-interpolation-filters="sRGB">
<feFlood flood-opacity="0" result="BackgroundImageFix"/>
<feGaussianBlur in="BackgroundImage" stdDeviation="3"/>
<feComposite in2="SourceAlpha" operator="in" result="effect1_backgroundBlur_107_497"/>
<feBlend mode="normal" in="SourceGraphic" in2="effect1_backgroundBlur_107_497" result="shape"/>
</filter>
<filter id="filter3_b_107_497" x="1.41132" y="5.71558" width="44.5887" height="19.6207" filterUnits="userSpaceOnUse" color-interpolation-filters="sRGB">
<feFlood flood-opacity="0" result="BackgroundImageFix"/>
<feGaussianBlur in="BackgroundImage" stdDeviation="3"/>
<feComposite in2="SourceAlpha" operator="in" result="effect1_backgroundBlur_107_497"/>
<feBlend mode="normal" in="SourceGraphic" in2="effect1_backgroundBlur_107_497" result="shape"/>
</filter>
<radialGradient id="paint0_radial_107_497" cx="0" cy="0" r="1" gradientUnits="userSpaceOnUse" gradientTransform="translate(17.4189 12.0086) rotate(125.643) scale(3.78701 14.2157)">
<stop stop-color="white" stop-opacity="0.17"/>
<stop offset="1" stop-color="white" stop-opacity="0.5"/>
</radialGradient>
<radialGradient id="paint1_radial_107_497" cx="0" cy="0" r="1" gradientUnits="userSpaceOnUse" gradientTransform="translate(22.2057 23.5862) rotate(-125.737) scale(3.79148 14.2483)">
<stop stop-color="white" stop-opacity="0.17"/>
<stop offset="1" stop-color="white" stop-opacity="0.5"/>
</radialGradient>
<radialGradient id="paint2_radial_107_497" cx="0" cy="0" r="1" gradientUnits="userSpaceOnUse" gradientTransform="translate(26.7725 17.7242) rotate(125.844) scale(3.7966 14.2853)">
<stop stop-color="white" stop-opacity="0.17"/>
<stop offset="1" stop-color="white" stop-opacity="0.5"/>
</radialGradient>
</defs>
</svg>
